<?xml version="1.0" encoding="UTF-8"?>
<svg version="1.1" xmlns="http://www.w3.org/2000/svg" xmlns:xlink="http://www.w3.org/1999/xlink" width="36px" height="40px" viewBox="0 0 36 40">
    <!-- Generator: sketchtool 63.1 (101010) - https://sketch.com -->
    <title>26F96B11-737A-4DFD-85AD-3BD81C45F569</title>
    <desc>Created with sketchtool.</desc>
    <g id="8.-Services-Web" stroke="none" stroke-width="1" fill="none" fill-rule="evenodd">
        <g id="1920_Services_Web" transform="translate(-304.000000, -4774.000000)">
            <g id="7" transform="translate(150.000000, 4001.000000)">
                <g id="left-block" transform="translate(0.000000, 258.000000)">
                    <g id="back-end" transform="translate(0.000000, 439.000000)">
                        <g id="2" transform="translate(124.000000, 46.000000)">
                            <g id="content" transform="translate(30.000000, 30.000000)">
                                <g id="logo_csharp">
                                    <g id="Group-4">
                                        <polygon id="Clip-2" points="0 0 35.5898082 0 35.5898082 39.9934247 0 39.9934247"></polygon>
                                        <path d="M35.5880548,11.76 C35.587726,11.0874521 35.4439452,10.4931507 35.1529863,9.9830137 C34.8672877,9.48142466 34.4393425,9.0610411 33.8654247,8.72865753 C29.1273425,5.99671233 24.3847671,3.27309589 19.6483288,0.538410959 C18.3713973,-0.198794521 17.1333699,-0.171945205 15.865863,0.575890411 C13.9800548,1.688 4.53819178,7.09753425 1.72460274,8.72712329 C0.565917808,9.39791781 0.00208219178,10.4244384 0.0018630137,11.7587945 C0,17.2528219 0.0018630137,22.7468493 0,28.2410959 C0,28.8989589 0.137972603,29.4817534 0.416109589,29.9841096 C0.701917808,30.5008219 1.13589041,30.9328219 1.72306849,31.2727671 C4.53676712,32.9023562 13.9798356,38.3114521 15.8653151,39.4238904 C17.1333699,40.1720548 18.3713973,40.1987945 19.6487671,39.4613699 C24.3853151,36.7264658 29.1282192,34.0029589 33.8669589,31.2711233 C34.454137,30.9312877 34.888,30.4990685 35.1739178,29.9826849 C35.4516164,29.4803288 35.5898082,28.8975342 35.5898082,28.2395616 C35.5898082,28.2395616 35.5898082,17.2542466 35.5880548,11.76" id="Fill-1" fill="#8D4482"></path>
                                        <path d="M17.8493151,19.946411 L0.416109589,29.9841096 C0.701917808,30.5008219 1.13589041,30.9328219 1.72306849,31.2727671 C4.53676712,32.9023562 13.9798356,38.3114521 15.8653151,39.4238904 C17.1333699,40.1720548 18.3713973,40.1987945 19.6487671,39.4613699 C24.3853151,36.7264658 29.1282192,34.0029589 33.8669589,31.2711233 C34.454137,30.9312877 34.888,30.4990685 35.1739178,29.9826849 L17.8493151,19.946411" id="Fill-3" fill="#5B2863"></path>
                                    </g>
                                    <path d="M12.6858082,22.9196712 C13.700274,24.6906301 15.6073425,25.8851507 17.7949589,25.8851507 C19.9960548,25.8851507 21.9139726,24.6755068 22.9231781,22.885589 L17.8493151,19.946411 L12.6858082,22.9196712" id="Fill-5" fill="#5B2863"></path>
                                    <path d="M35.5880548,11.76 C35.587726,11.0874521 35.4439452,10.4931507 35.1529863,9.9830137 L17.8493151,19.946411 L35.1739178,29.9826849 C35.4516164,29.4803288 35.589589,28.8975342 35.5898082,28.2395616 C35.5898082,28.2395616 35.5898082,17.2542466 35.5880548,11.76" id="Fill-6" fill="#732E71"></path>
                                    <path d="M22.9231781,22.885589 C21.9139726,24.6755068 19.9960548,25.8851507 17.7949589,25.8851507 C15.6073425,25.8851507 13.700274,24.6906301 12.6858082,22.9196712 C12.1929863,22.0590685 11.9096986,21.0627945 11.9096986,19.9998904 C11.9096986,16.749589 14.5446575,14.1147397 17.7949589,14.1147397 C19.9684384,14.1147397 21.8655342,15.2943562 22.8849315,17.0472329 L28.0289315,14.0850411 C25.9843288,10.5556164 22.1671233,8.18115068 17.7949589,8.18115068 C11.2673973,8.18115068 5.97610959,13.4726575 5.97610959,19.9998904 C5.97610959,22.1412603 6.54575342,24.1493699 7.54136986,25.8815342 C9.58082192,29.429589 13.4089863,31.8187397 17.7949589,31.8187397 C22.1889315,31.8187397 26.0231233,29.4200548 28.0596164,25.8614795 L22.9231781,22.885589" id="Fill-7" fill="#FFFFFE"></path>
                                    <polygon id="Fill-8" fill="#FFFFFE" points="28.2542466 22.8675068 29.4232329 22.8675068 29.4232329 17.2054795 28.2542466 17.2054795"></polygon>
                                    <polygon id="Fill-9" fill="#FFFFFE" points="30.8478904 22.8675068 32.0167671 22.8675068 32.0167671 17.2054795 30.8478904 17.2054795"></polygon>
                                    <polygon id="Fill-10" fill="#FFFFFE" points="27.3044384 19.3241644 32.9665753 19.3241644 32.9665753 18.1551781 27.3044384 18.1551781"></polygon>
                                    <polygon id="Fill-11" fill="#FFFFFE" points="27.3044384 21.9178082 32.9665753 21.9178082 32.9665753 20.7488219 27.3044384 20.7488219"></polygon>
                                </g>
                            </g>
                        </g>
                    </g>
                </g>
            </g>
        </g>
    </g>
</svg>
