<?xml version="1.0" encoding="UTF-8"?>
<svg version="1.1" xmlns="http://www.w3.org/2000/svg" xmlns:xlink="http://www.w3.org/1999/xlink" width="35px" height="39px" viewBox="0 0 35 39">
    <!-- Generator: sketchtool 63.1 (101010) - https://sketch.com -->
    <title>4CE97525-67EC-4FA4-87AA-8D077D091B9F</title>
    <desc>Created with sketchtool.</desc>
    <g id="8.-Services-Web" stroke="none" stroke-width="1" fill="none" fill-rule="evenodd">
        <g id="1920_Services_Web" transform="translate(-307.000000, -4460.000000)" fill-rule="nonzero">
            <g id="7" transform="translate(150.000000, 4001.000000)">
                <g id="left-block" transform="translate(0.000000, 258.000000)">
                    <g id="front-end">
                        <g id="9" transform="translate(124.000000, 170.000000)">
                            <g id="logo_css" transform="translate(30.000000, 30.000000)">
                                <g transform="translate(3.000000, 1.000000)" id="Shape">
                                    <polygon fill="#264DE4" points="17.1703517 38.877512 3.17797364 34.9930832 0.0597666415 0.0195248888 34.3228406 0.0195248888 31.2014102 34.9877109"></polygon>
                                    <polygon fill="#2965F1" points="28.5291027 32.7610342 31.1964409 2.87905649 17.1913036 2.87905649 17.1913036 35.9042223 28.5291027 32.7610342"></polygon>
                                    <path d="M7.20812558,15.850298 L7.59251238,20.1396626 L17.1913036,20.1396626 L17.1913036,15.850298 L7.20812558,15.850298 Z M6.43559137,7.16855536 L6.82548476,11.4579199 L17.1913036,11.4579199 L17.1913036,7.16855536 L6.43559137,7.16855536 L6.43559137,7.16855536 Z M17.1913036,26.9902627 L17.1725006,26.9952321 L12.3954671,25.7053471 L12.0900529,22.284412 L7.78416856,22.284412 L8.38505834,29.0193738 L17.1715605,31.45839 L17.1913036,31.4530177 L17.1913036,26.9902627 Z" fill="#EBEBEB"></path>
                                    <polygon fill="#FFFFFF" points="27.147083 15.850298 27.9213632 7.16855536 17.1765298 7.16855536 17.1765298 11.4579199 23.2206161 11.4579199 22.8303198 15.850298 17.1765298 15.850298 17.1765298 20.1396626 22.4584236 20.1396626 21.960413 25.702661 17.1763955 26.993889 17.1763955 31.4563754 25.9698816 29.0193738 26.034349 28.2946529 27.0424578 17.0021153 27.147083 15.850298"></polygon>
                                </g>
                            </g>
                        </g>
                    </g>
                </g>
            </g>
        </g>
    </g>
</svg>
