<?xml version="1.0" encoding="UTF-8"?>
<svg version="1.1" xmlns="http://www.w3.org/2000/svg" xmlns:xlink="http://www.w3.org/1999/xlink" width="33px" height="32px" viewBox="0 0 33 32">
    <!-- Generator: sketchtool 63.1 (101010) - https://sketch.com -->
    <title>B3E4B8F7-363F-489D-BE86-AB8CA48FBA8B</title>
    <desc>Created with sketchtool.</desc>
    <g id="8.-Services-Web" stroke="none" stroke-width="1" fill="none" fill-rule="evenodd">
        <g id="1920_Services_Web" transform="translate(-182.000000, -5599.000000)">
            <g id="7" transform="translate(150.000000, 4001.000000)">
                <g id="left-block" transform="translate(0.000000, 258.000000)">
                    <g id="database" transform="translate(0.000000, 1136.000000)">
                        <g id="4" transform="translate(0.000000, 170.000000)">
                            <g id="logo_elastic" transform="translate(29.000000, 30.000000)">
                                <g id="Shape">
                                    <path d="M27.85,13 L6,13 C5.45,13 5,12.55 5,12 L5,5 C5,4.45 5.45,4 6,4 L34.5,4 C35.05,4 35.5,4.45 35.5,5 L35.5,5.35 C35.45,9.55 32.05,13 27.85,13 Z" fill="#F0BF1A" fill-rule="nonzero"></path>
                                    <path d="M35.55,36 L5.1,36 L5.1,27 L27.95,27 C32.15,27 35.55,30.4 35.55,34.6 L35.55,36 L35.55,36 Z" fill="#3EBEB0" fill-rule="nonzero"></path>
                                    <path d="M29.05,24.5 L6.4,24.5 L6.4,15.5 L29.05,15.5 C31.55,15.5 33.55,17.5 33.55,20 C33.55,22.5 31.5,24.5 29.05,24.5 Z" fill="#07A5DE" fill-rule="nonzero"></path>
                                    <path d="M20,15.5 L5.2,15.5 L5.2,24.5 L20,24.5 C20.35,23.15 20.55,21.65 20.55,20 C20.55,18.35 20.35,16.85 20,15.5 Z" fill="#231F20" fill-rule="nonzero"></path>
                                    <path d="M12.95,6.15 C10.25,7.75 8,10.15 6.6,13 L18.4,13 C17.2,10.25 15.3,7.95 12.95,6.15 Z" fill="#D7A229" fill-rule="nonzero"></path>
                                    <path d="M13.45,34.1 C15.75,32.25 17.6,29.8 18.75,27 L6.6,27 C8.1,30 10.5,32.5 13.45,34.1 Z" fill="#019B8F" fill-rule="nonzero"></path>
                                    <polygon points="0 0 40 0 40 40 0 40"></polygon>
                                </g>
                            </g>
                        </g>
                    </g>
                </g>
            </g>
        </g>
    </g>
</svg>
