<?xml version="1.0" encoding="UTF-8"?>
<svg version="1.1" xmlns="http://www.w3.org/2000/svg" xmlns:xlink="http://www.w3.org/1999/xlink" width="60px" height="18px" viewBox="0 0 60 18">
    <!-- Generator: sketchtool 63.1 (101010) - https://sketch.com -->
    <title>66B29F6E-F9E5-40C4-8E8B-F63E9E228B96</title>
    <desc>Created with sketchtool.</desc>
    <g id="8.-Services-Web" stroke="none" stroke-width="1" fill="none" fill-rule="evenodd">
        <g id="1920_Services_Web" transform="translate(-294.000000, -4976.000000)" fill="#222222" fill-rule="nonzero">
            <g id="7" transform="translate(150.000000, 4001.000000)">
                <g id="left-block" transform="translate(0.000000, 258.000000)">
                    <g id="languages" transform="translate(0.000000, 630.000000)">
                        <g id="2">
                            <g transform="translate(124.000000, 46.000000)" id="logo_express">
                                <g transform="translate(20.000000, 41.000000)">
                                    <path d="M0.39046875,13.5502734 L0.39046875,6.8728125 L8.72765625,6.8728125 L8.72765625,6.48222656 L0.39046875,6.48222656 L0.39046875,0.39046875 L9.25476562,0.39046875 L9.25476562,0 L0,0 L0,13.9407422 L9.3328125,13.9407422 L9.3328125,13.5502734 L0.390585938,13.5502734 L0.39046875,13.5502734 Z M16.8500391,3.90492188 L13.3941797,8.45425781 L10.01625,3.90503906 L9.50859375,3.90503906 L13.1598047,8.74722656 L9.15703125,13.940625 L9.62566406,13.940625 L13.3939453,9.03984375 L17.1817969,13.940625 L17.6698828,13.940625 L13.6477734,8.74699219 L17.3184375,3.90480469 L16.8499219,3.90480469 L16.8500391,3.90492188 Z M18.8415234,17.3771484 L18.8415234,11.1292969 L18.8805469,11.1292969 C19.1149219,12.0404297 19.5769922,12.7726172 20.266875,13.3258594 C20.9567578,13.8789844 21.8353125,14.1556641 22.9026562,14.1556641 C23.5925391,14.1556641 24.204375,14.0157422 24.7380469,13.7358984 C25.2717187,13.4560547 25.7175,13.0753125 26.0755078,12.5936719 C26.4333984,12.1120313 26.7067969,11.5523438 26.8955859,10.9144922 C27.0842578,10.2767578 27.1787109,9.60632813 27.1787109,8.90355469 C27.1787109,8.14851563 27.0809766,7.45207031 26.8857422,6.81433594 C26.6905078,6.17648438 26.4073828,5.62324219 26.0364844,5.15472656 C25.6654687,4.68609375 25.2164062,4.32152344 24.6891797,4.06136719 C24.1620703,3.80097656 23.5665234,3.67078125 22.9026562,3.67078125 C22.395,3.67078125 21.9232031,3.74566406 21.4871484,3.8953125 C21.0510937,4.04507813 20.6639062,4.25648438 20.3254687,4.52988281 C19.9850491,4.80538199 19.6887371,5.13129352 19.4467969,5.49632813 C19.1995312,5.86734375 19.0107422,6.27410156 18.8805469,6.71671875 L18.8415234,6.71671875 L18.8415234,3.90492188 L18.4510547,3.90492188 L18.4510547,17.3771484 L18.8415234,17.3771484 L18.8415234,17.3771484 Z M22.9026563,13.7845313 C21.6792188,13.7845313 20.6963672,13.3647656 19.9544531,12.5252344 C19.2125391,11.6857031 18.8415234,10.4783203 18.8415234,8.90332031 C18.8415234,8.25246094 18.9326953,7.63417969 19.1149219,7.04847656 C19.2971484,6.46277344 19.5607031,5.94855469 19.9055859,5.50605469 C20.2505859,5.0634375 20.6769141,4.71199219 21.1844531,4.45171875 C21.6921094,4.19132813 22.2649219,4.06113281 22.9026563,4.06113281 C23.5535156,4.06113281 24.1230469,4.19132813 24.6111328,4.45171875 C25.0992188,4.71199219 25.5028125,5.06671875 25.8216797,5.51578125 C26.1405469,5.96484375 26.3813672,6.4790625 26.5441406,7.05820313 C26.7067969,7.63746094 26.788125,8.25246094 26.788125,8.90332031 C26.788125,9.48914063 26.7133594,10.0716797 26.5635938,10.6508203 C26.4139453,11.2300781 26.1828516,11.7507422 25.8704297,12.2129297 C25.558125,12.6748828 25.1579297,13.0523438 24.6697266,13.3453125 C24.1815234,13.6381641 23.5925391,13.7845313 22.9026563,13.7845313 L22.9026563,13.7845313 Z M29.3264062,13.9407422 L29.3264062,8.25902344 C29.3264062,7.71234375 29.4044531,7.17855469 29.5607812,6.65800781 C29.716875,6.13734375 29.9576953,5.6784375 30.283125,5.28152344 C30.6085547,4.88449219 31.0217578,4.57207031 31.5229687,4.34425781 C32.0240625,4.11644531 32.6196094,4.02210937 33.3094922,4.06113281 L33.3094922,3.67066406 C32.7106641,3.65777344 32.1868359,3.72269531 31.7377734,3.86589844 C31.2885937,4.00910156 30.9014062,4.20433594 30.5759766,4.45171875 C30.2505469,4.69898437 29.9902734,4.98855469 29.7950391,5.32054687 C29.5999513,5.65201182 29.455169,6.01061061 29.3654297,6.38460938 L29.3264063,6.38460938 L29.3264063,3.90492188 L28.9359375,3.90492188 L28.9359375,13.9408594 L29.3264063,13.9408594 L29.3264062,13.9407422 Z M33.7975781,9.0009375 L42.1932422,9.0009375 C42.219375,8.31105469 42.1510547,7.64730469 41.9882813,7.00945312 C41.825625,6.37160156 41.5652344,5.80535156 41.2073438,5.31082031 C40.8493359,4.81617187 40.3872656,4.41914062 39.8210156,4.11972656 C39.2547656,3.8203125 38.5811719,3.67066406 37.8002344,3.67066406 C37.2404297,3.67066406 36.69375,3.78785156 36.1600781,4.02222656 C35.6264063,4.25648437 35.1577734,4.59808594 34.7542969,5.04714844 C34.3508203,5.49621094 34.0253906,6.04617187 33.778125,6.69714844 C33.5308594,7.34789062 33.4071094,8.08980469 33.4071094,8.92289062 C33.4071094,9.66480469 33.4917188,10.3579687 33.6609375,11.0022656 C33.8301563,11.6465625 34.0904297,12.2063672 34.441875,12.6814453 C34.7934375,13.1565234 35.2457813,13.5242578 35.7989063,13.7845312 C36.3520313,14.0449219 37.0191797,14.1685547 37.8002344,14.1555469 C38.945625,14.1555469 39.9089063,13.8332812 40.6898438,13.1891016 C41.4708984,12.5446875 41.9329688,11.6368359 42.0761719,10.4653125 L41.6857031,10.4653125 C41.5164844,11.5717969 41.0835938,12.4016016 40.3872656,12.9547266 C39.6908203,13.5079687 38.8155469,13.7845312 37.7610938,13.7845312 C37.0451953,13.7845312 36.4399219,13.6608984 35.9452734,13.4136328 C35.4507422,13.1663672 35.0471484,12.8278125 34.7347266,12.3983203 C34.4224219,11.9687109 34.1913281,11.4643359 34.0416797,10.8850781 C33.8919141,10.3059375 33.8105859,9.6778125 33.7975781,9.0009375 Z M41.8027734,8.61046875 L33.7976953,8.61046875 C33.8366016,7.90757813 33.9667969,7.27628906 34.1880469,6.71660156 C34.4094141,6.15679687 34.6989844,5.6784375 35.0569922,5.28152344 C35.4148828,4.88449219 35.8314844,4.58191406 36.3065625,4.37355469 C36.7816406,4.1653125 37.2925781,4.06113281 37.8392578,4.06113281 C38.4901172,4.06113281 39.0626953,4.18160156 39.5574609,4.42242188 C40.0519922,4.66324219 40.4653125,4.99195313 40.7973047,5.4084375 C41.1291797,5.82492188 41.3797266,6.30984375 41.5489453,6.86296875 C41.7181641,7.41621094 41.8027734,7.99875 41.8027734,8.61046875 Z M50.2961719,6.8728125 L50.6866406,6.8728125 C50.6866406,5.75332031 50.3612109,4.93980469 49.7104687,4.43214844 C49.0594922,3.92449219 48.174375,3.67066406 47.055,3.67066406 C46.4301562,3.67066406 45.9030469,3.74882813 45.4734375,3.90503906 C45.0439453,4.06113281 44.6925,4.26292969 44.4191016,4.51019531 C44.1458203,4.75746094 43.9505859,5.03085937 43.8333984,5.33027344 C43.7162109,5.6296875 43.6576172,5.91609375 43.6576172,6.189375 C43.6576172,6.73605469 43.7552344,7.17210937 43.9505859,7.49753906 C44.1458203,7.82296875 44.4516797,8.07679687 44.8681641,8.25902344 C45.1545703,8.38910156 45.4798828,8.50628906 45.8444531,8.61058594 C46.2089062,8.71464844 46.6319531,8.82527344 47.1135937,8.94234375 C47.5430859,9.04664063 47.9661328,9.15070313 48.3827344,9.25476563 C48.7992187,9.35894531 49.1669531,9.49886719 49.4858203,9.67453125 C49.8048047,9.8503125 50.0650781,10.0748437 50.266875,10.3482422 C50.4685547,10.6215234 50.5694531,10.9795313 50.5694531,11.4220312 C50.5694531,11.8516406 50.4686719,12.2160938 50.266875,12.5153906 C50.0667948,12.8132437 49.8034665,13.0632875 49.4956641,13.2476953 C49.1832422,13.4363672 48.8349609,13.5730078 48.4510547,13.6576172 C48.0670312,13.7422266 47.6928516,13.7845313 47.3283984,13.7845313 C46.1438672,13.7845313 45.2358984,13.5209766 44.6046094,12.9938672 C43.9733203,12.4666406 43.6577344,11.6368359 43.6577344,10.5043359 L43.2671484,10.5043359 C43.2671484,11.7670313 43.6088672,12.6911719 44.2921875,13.2769922 C44.975625,13.8626953 45.9876563,14.1555469 47.3283984,14.1555469 C47.7578906,14.1555469 48.1906641,14.1066797 48.6268359,14.0090625 C49.0627734,13.9114453 49.4533594,13.7520703 49.7982422,13.5307031 C50.1401984,13.3124739 50.4274333,13.0185833 50.6377734,12.6717188 C50.8525781,12.3201563 50.9600391,11.8906641 50.9600391,11.3830078 C50.9600391,10.9013672 50.8655859,10.5108984 50.6769141,10.2114844 C50.488125,9.9121875 50.2408594,9.66480469 49.9348828,9.46957031 C49.6290234,9.27433594 49.2841406,9.12140625 48.9001172,9.01078125 C48.513932,8.89950177 48.1266471,8.79207456 47.7383203,8.68851562 C47.2604154,8.56313116 46.7820528,8.43949752 46.3032422,8.31761719 C45.8933203,8.2134375 45.5125781,8.08980469 45.1611328,7.94660156 C44.8226953,7.80339844 44.5525781,7.5984375 44.3507812,7.33160156 C44.1489844,7.06476562 44.0482031,6.68402344 44.0482031,6.189375 C44.0482031,6.09832031 44.0742187,5.93554687 44.12625,5.70128906 C44.1782812,5.46691406 44.3020312,5.229375 44.4972656,4.98855469 C44.6925,4.74785156 44.9917969,4.53304687 45.3953906,4.34425781 C45.7988672,4.15558594 46.3521094,4.06113281 47.055,4.06113281 C47.5366406,4.06113281 47.9758594,4.11328125 48.3728906,4.21734375 C48.7699219,4.32152344 49.1116406,4.48746094 49.3979297,4.71527344 C49.6843359,4.94308594 49.9055859,5.23265625 50.0617969,5.58410156 C50.2180078,5.93566406 50.2961719,6.36515625 50.2961719,6.8728125 L50.2961719,6.8728125 Z M59.3361328,6.8728125 L59.7266016,6.8728125 C59.7266016,5.75332031 59.4012891,4.93980469 58.7504297,4.43214844 C58.0995703,3.92449219 57.2144531,3.67066406 56.0949609,3.67066406 C55.4702344,3.67066406 54.9430078,3.74882813 54.5135156,3.90503906 C54.0839063,4.06113281 53.7324609,4.26292969 53.4591797,4.51019531 C53.1857812,4.75746094 52.9905469,5.03085937 52.8733594,5.33027344 C52.7561719,5.6296875 52.6976953,5.91609375 52.6976953,6.189375 C52.6976953,6.73605469 52.7953125,7.17210937 52.9906641,7.49753906 C53.1857812,7.82296875 53.4917578,8.07679687 53.9082422,8.25902344 C54.1946484,8.38910156 54.5199609,8.50628906 54.8844141,8.61058594 C55.2488672,8.71464844 55.6719141,8.82527344 56.1535547,8.94234375 C56.5831641,9.04664063 57.0062109,9.15070313 57.4226953,9.25476563 C57.8392969,9.35894531 58.2069141,9.49886719 58.5258984,9.67453125 C58.8447656,9.8503125 59.1051562,10.0748437 59.3068359,10.3482422 C59.5086328,10.6215234 59.6095312,10.9795313 59.6095312,11.4220312 C59.6095312,11.8516406 59.5086328,12.2160938 59.3068359,12.5153906 C59.1067894,12.813231 58.8435022,13.0632738 58.5357422,13.2476953 C58.2232031,13.4363672 57.8750391,13.5730078 57.4910156,13.6576172 C57.1071094,13.7422266 56.7328125,13.7845313 56.3683594,13.7845313 C55.1838281,13.7845313 54.2759766,13.5209766 53.6446875,12.9938672 C53.0132812,12.4666406 52.6976953,11.6368359 52.6976953,10.5043359 L52.3072266,10.5043359 C52.3072266,11.7670313 52.6488281,12.6911719 53.3322656,13.2769922 C54.0155859,13.8626953 55.0276172,14.1555469 56.3683594,14.1555469 C56.7979687,14.1555469 57.2307422,14.1066797 57.6667969,14.0090625 C58.1027344,13.9114453 58.4933203,13.7520703 58.8383203,13.5307031 C59.1802765,13.3124739 59.4675114,13.0185833 59.6778516,12.6717188 C59.8926562,12.3201563 60,11.8906641 60,11.3830078 C60,10.9013672 59.9056641,10.5108984 59.716875,10.2114844 C59.5282031,9.9121875 59.2809375,9.66480469 58.9749609,9.46957031 C58.6691016,9.27433594 58.3241016,9.12140625 57.9401953,9.01078125 C57.5540101,8.8995017 57.1667252,8.79207449 56.7783984,8.68851563 C56.3004935,8.56313114 55.8221309,8.43949749 55.3433203,8.31761719 C54.9332813,8.2134375 54.5525391,8.08980469 54.2010938,7.94660156 C53.8626563,7.80339844 53.5925391,7.5984375 53.3908594,7.33160156 C53.1890625,7.06476562 53.0881641,6.68402344 53.0881641,6.189375 C53.0881641,6.09832031 53.1141797,5.93554687 53.1663281,5.70128906 C53.2183594,5.46691406 53.3421094,5.229375 53.5372266,4.98855469 C53.7324609,4.74785156 54.031875,4.53304687 54.4353516,4.34425781 C54.8389453,4.15558594 55.3920703,4.06113281 56.0950781,4.06113281 C56.5767188,4.06113281 57.0159375,4.11328125 57.4129688,4.21734375 C57.81,4.32152344 58.1516016,4.48746094 58.4380078,4.71527344 C58.7244141,4.94308594 58.9456641,5.23265625 59.101875,5.58410156 C59.2580859,5.93566406 59.33625,6.36515625 59.33625,6.8728125 L59.3361328,6.8728125 Z"></path>
                                </g>
                            </g>
                        </g>
                    </g>
                </g>
            </g>
        </g>
    </g>
</svg>
