<?xml version="1.0" encoding="UTF-8"?>
<svg version="1.1" xmlns="http://www.w3.org/2000/svg" xmlns:xlink="http://www.w3.org/1999/xlink" width="35px" height="39px" viewBox="0 0 35 39">
    <!-- Generator: sketchtool 63.1 (101010) - https://sketch.com -->
    <title>9CDE035B-8AA7-4187-9617-EDAA24C96956</title>
    <desc>Created with sketchtool.</desc>
    <g id="8.-Services-Web" stroke="none" stroke-width="1" fill="none" fill-rule="evenodd">
        <g id="1920_Services_Web" transform="translate(-183.000000, -4460.000000)" fill-rule="nonzero">
            <g id="7" transform="translate(150.000000, 4001.000000)">
                <g id="left-block" transform="translate(0.000000, 258.000000)">
                    <g id="front-end">
                        <g id="8" transform="translate(0.000000, 170.000000)">
                            <g id="content" transform="translate(30.000000, 30.000000)">
                                <g id="logo_html">
                                    <g transform="translate(3.000000, 1.000000)" id="Shape">
                                        <polygon fill="#E44D26" points="34.3228406 0.0195248888 31.2014102 34.9877109 17.1703517 38.877512 3.17797364 34.9930832 0.0597666415 0.0195248888"></polygon>
                                        <polygon fill="#F16529" points="17.1913036 35.9042223 28.5291027 32.7610342 31.1964409 2.87905649 17.1913036 2.87905649"></polygon>
                                        <path d="M11.1233107,11.4579199 L17.1913036,11.4579199 L17.1913036,7.16855536 L6.43559137,7.16855536 L6.53820196,8.31929825 L7.59251238,20.1396626 L17.1913036,20.1396626 L17.1913036,15.850298 L11.515353,15.850298 L11.1233107,11.4579199 L11.1233107,11.4579199 Z M12.0900529,22.284412 L7.78416856,22.284412 L8.38505834,29.0193738 L17.1715605,31.45839 L17.1913036,31.4530177 L17.1913036,26.9902627 L17.1725006,26.9952321 L12.3954671,25.7053471 L12.0900529,22.284412 L12.0900529,22.284412 Z" fill="#EBEBEB"></path>
                                        <path d="M17.1765298,20.1396626 L22.4584236,20.1396626 L21.960413,25.702661 L17.1763955,26.993889 L17.1763955,31.4563754 L25.9698816,29.0193738 L26.034349,28.2946529 L27.0424578,17.0021153 L27.147083,15.850298 L17.1765298,15.850298 L17.1765298,20.1396626 Z M17.1765298,11.447444 L17.1765298,11.4579199 L27.5373793,11.4579199 L27.6233359,10.4938638 L27.8188869,8.31929825 L27.9213632,7.16855536 L17.1765298,7.16855536 L17.1765298,11.4475783 L17.1765298,11.447444 Z" fill="#FFFFFF"></path>
                                    </g>
                                </g>
                            </g>
                        </g>
                    </g>
                </g>
            </g>
        </g>
    </g>
</svg>
