<?xml version="1.0" encoding="UTF-8"?>
<svg version="1.1" xmlns="http://www.w3.org/2000/svg" xmlns:xlink="http://www.w3.org/1999/xlink" width="37px" height="40px" viewBox="0 0 37 40">
    <!-- Generator: sketchtool 63.1 (101010) - https://sketch.com -->
    <title>3AF9C70E-46EA-4497-B8B0-66B99CDB6B9B</title>
    <desc>Created with sketchtool.</desc>
    <g id="8.-Services-Web" stroke="none" stroke-width="1" fill="none" fill-rule="evenodd">
        <g id="1920_Services_Web" transform="translate(-430.000000, -4774.000000)" fill="#8CC84B" fill-rule="nonzero">
            <g id="7" transform="translate(150.000000, 4001.000000)">
                <g id="left-block" transform="translate(0.000000, 258.000000)">
                    <g id="back-end" transform="translate(0.000000, 439.000000)">
                        <g id="4" transform="translate(248.000000, 46.000000)">
                            <g id="logo_nodejs" transform="translate(30.000000, 30.000000)">
                                <g transform="translate(2.000000, 0.000000)" id="Shape">
                                    <path d="M16.5253901,0.507801418 C17.5129078,-0.0574468085 18.7991489,-0.06 19.7858156,0.507801418 C24.7496454,3.31262411 29.7150355,6.11304965 34.6780142,8.91957447 C35.6114894,9.44539007 36.2358865,10.4842553 36.22649,11.5598582 L36.22649,28.4347518 C36.2333333,29.5548936 35.547234,30.6185816 34.5624113,31.1324823 C29.6148936,33.921844 24.6699291,36.7146099 19.7232624,39.5039716 C18.7153191,40.0802837 17.4032624,40.0358865 16.4268085,39.4123404 C14.9435461,38.5524823 13.4577305,37.6968794 11.9743262,36.8378723 C11.6712057,36.6571631 11.3295035,36.5133333 11.115461,36.2194326 C11.3046809,35.9643972 11.6429787,35.9326241 11.9178723,35.8212766 C12.5370213,35.6243972 13.1056738,35.3083688 13.6744681,35.0017021 C13.8182979,34.9032624 13.9939007,34.9409929 14.131773,35.029078 C15.4001418,35.7563121 16.657305,36.5046809 17.9299291,37.2249645 C18.2014184,37.3817021 18.4763121,37.173617 18.7083688,37.0442553 C23.5634043,34.3002837 28.4243972,31.5666667 33.2785816,28.821844 C33.4584397,28.7353191 33.5578723,28.5443972 33.5432624,28.3473759 C33.5466667,22.7807092 33.5441135,17.2130496 33.5449645,11.646383 C33.5655319,11.4228369 33.4361702,11.217305 33.2340426,11.1258156 C28.3036879,8.34921986 23.3758865,5.56836879 18.446383,2.79106383 C18.2715649,2.67087844 18.0408433,2.6705403 17.8656738,2.79021277 C12.9361702,5.56836879 8.00921986,8.35177305 3.07971631,11.128227 C2.87829787,11.2198582 2.74312057,11.4219858 2.7670922,11.646383 C2.76794326,17.2130496 2.7670922,22.7807092 2.7670922,28.348227 C2.74958535,28.5451148 2.85656327,28.7320715 3.0351773,28.8167376 C4.3506383,29.562695 5.66780142,30.3034043 6.98411348,31.0468085 C7.72567376,31.4459574 8.63617021,31.6831206 9.45319149,31.377305 C10.1741844,31.1187234 10.6795745,30.3829787 10.6658156,29.6174468 C10.6726241,24.0832624 10.6624113,18.548227 10.670922,13.0148936 C10.6529078,12.7692199 10.8859574,12.5662411 11.1248227,12.5893617 C11.7568794,12.5851064 12.3897872,12.5808511 13.021844,12.5910638 C13.2856738,12.5851064 13.467234,12.8496454 13.4346099,13.0971631 C13.4320567,18.666383 13.4414184,24.2357447 13.4303546,29.8049645 C13.4320567,31.2892199 12.8222695,32.9042553 11.4493617,33.6304965 C9.75801418,34.5066667 7.66751773,34.3208511 5.99659574,33.4807092 C4.55007092,32.7587234 3.16964539,31.9066667 1.74879433,31.1331915 C0.76141844,30.6221277 0.0787234043,29.5541844 0.0855516737,28.4348936 L0.0855516737,11.5598582 C0.0753191489,10.4619858 0.724539007,9.40425532 1.6870922,8.88609929 C6.63375887,6.09446809 11.5795745,3.30070922 16.5253901,0.507801418 Z"></path>
                                    <path d="M20.8408511,12.1971631 C22.9982979,12.0582979 25.3079433,12.1148936 27.2493617,13.1777305 C28.7524823,13.9921986 29.5858156,15.7015603 29.6123404,17.3714894 C29.5703546,17.5967376 29.3348936,17.7209929 29.1198582,17.7055319 C28.4939007,17.7046809 27.8678014,17.7140426 27.241844,17.7012766 C26.9763121,17.7114894 26.8219858,17.4666667 26.7886525,17.2319149 C26.6087943,16.4329078 26.1730496,15.6415603 25.4209929,15.2561702 C24.2665248,14.678156 22.9279433,14.707234 21.669078,14.7192908 C20.7500709,14.7680851 19.761844,14.8476596 18.9832624,15.3880851 C18.3855319,15.7974468 18.2039716,16.6238298 18.417305,17.2893617 C18.6184397,17.767234 19.1700709,17.9214184 19.6214184,18.0635461 C22.2214184,18.7435461 24.9765957,18.6758865 27.5269504,19.5707801 C28.5828369,19.9356028 29.6157447,20.6448227 29.9771631,21.7503546 C30.4499291,23.2320567 30.242695,25.0031206 29.1885106,26.1926241 C28.333617,27.1714894 27.0885106,27.7042553 25.8466667,27.993617 C24.1946099,28.3619858 22.4801418,28.3713475 20.8024113,28.2078014 C19.2248227,28.0279433 17.5831206,27.6134752 16.3652482,26.5385816 C15.3238298,25.6343262 14.8151773,24.2253901 14.8656738,22.8655319 C14.8777305,22.6358865 15.106383,22.4757447 15.326383,22.4946099 C15.9567376,22.4895035 16.5870922,22.4878014 17.2174468,22.495461 C17.4692199,22.4774468 17.6558865,22.6950355 17.6687943,22.9323404 C17.7851064,23.693617 18.0712057,24.4926241 18.7350355,24.9439716 C20.0161702,25.7704965 21.6236879,25.7139007 23.0906383,25.7370213 C24.3059574,25.6831206 25.6702128,25.6668085 26.6619858,24.8635461 C27.1852482,24.4053901 27.3402837,23.6388652 27.1988652,22.9794326 C27.0456738,22.422695 26.4632624,22.1632624 25.9631206,21.993617 C23.3964539,21.1817021 20.6104965,21.4763121 18.0686525,20.558156 C17.0367376,20.1934752 16.0388652,19.5039716 15.6424113,18.4438298 C15.0892199,16.9434043 15.342695,15.0875177 16.5073759,13.938156 C17.6429787,12.7948936 19.2822695,12.3546099 20.8408511,12.1970213 L20.8408511,12.1971631 Z"></path>
                                </g>
                            </g>
                        </g>
                    </g>
                </g>
            </g>
        </g>
    </g>
</svg>
