<?xml version="1.0" encoding="UTF-8"?>
<svg version="1.1" xmlns="http://www.w3.org/2000/svg" xmlns:xlink="http://www.w3.org/1999/xlink" width="36px" height="40px" viewBox="0 0 36 40">
    <!-- Generator: sketchtool 63.1 (101010) - https://sketch.com -->
    <title>34519F61-309E-4410-8FD7-F37BCE6017B5</title>
    <desc>Created with sketchtool.</desc>
    <g id="8.-Services-Web" stroke="none" stroke-width="1" fill="none" fill-rule="evenodd">
        <g id="1920_Services_Web" transform="translate(-430.000000, -4335.000000)" fill-rule="nonzero">
            <g id="7" transform="translate(150.000000, 4001.000000)">
                <g id="left-block" transform="translate(0.000000, 258.000000)">
                    <g id="front-end">
                        <g id="7" transform="translate(248.000000, 46.000000)">
                            <g id="logo_js" transform="translate(30.000000, 30.000000)">
                                <g transform="translate(2.000000, 0.000000)">
                                    <path d="M3.3840273,35.9064846 L0.134880546,0.138566553 L35.1382935,0.15221843 L31.9164505,35.8791809 L17.6092833,39.9201365 L3.3840273,35.9064846 Z M29.2816382,33.9542662 L31.9983618,3.31945392 L17.6638908,3.31945392 L17.7731058,37.1078498 L29.2816382,33.9542662 L29.2816382,33.9542662 Z M16.3260068,7.8109215 L12.8447782,7.8109215 L12.8038225,26.1453925 L6.04614334,24.3023891 L6.05979522,28.4935154 L16.3260068,31.2648464 L16.3260068,7.8109215 Z" id="path5113" fill="#D4B830"></path>
                                    <path d="M15.1792491,30.9235495 C14.7287372,30.7870307 12.5034812,30.1863481 10.2372696,29.5720137 L6.12805461,28.4662116 L6.12805461,26.4047782 C6.12805461,24.3843003 6.12805461,24.3433447 6.33283276,24.4116041 C6.44204778,24.4525597 7.94375427,24.862116 9.66389078,25.3399317 L12.7901706,26.2 L12.8174744,17.0532423 L12.8447782,7.90648464 L16.2577474,7.90648464 L16.2577474,19.537884 C16.2577474,28.7802048 16.2304437,31.1692833 16.1348805,31.1692833 C16.0666212,31.1556314 15.6297611,31.0464164 15.1792491,30.9235495 L15.1792491,30.9235495 Z" id="path5159" fill-opacity="0" fill="#EBEBEB" opacity="0.986"></path>
                                    <path d="M6.05979522,28.4935154 L6.04614334,24.3023891 C6.04614334,24.3023891 10.3601365,25.5174061 12.8038225,26.1453925 L12.8447782,7.82457338 L16.3260068,7.82457338 L16.3260068,31.2648464 L6.05979522,28.4935154 Z" id="path5157" fill-opacity="0.9216" fill="#EBEBEB" opacity="0.986"></path>
                                    <path d="M17.6638908,3.30580205 L31.9983618,3.30580205 L29.2816382,33.9406143 L17.6638908,37.094198 L17.6638908,3.30580205 Z M28.5444369,28.8075085 L29.4864164,17.3535836 L22.523959,18.1317406 L22.523959,12.0156997 L29.9505802,11.9883959 L30.2509215,7.8109215 L19.0427304,7.86552901 L19.192901,23.0737201 L25.9642321,21.9133106 L25.8686689,25.2989761 L19.0427304,27.1146758 L19.1109898,31.2648464 L28.5444369,28.8075085 Z" id="path5117" fill="#FDD83C"></path>
                                </g>
                            </g>
                        </g>
                    </g>
                </g>
            </g>
        </g>
    </g>
</svg>
