<?xml version="1.0" encoding="UTF-8"?>
<svg version="1.1" xmlns="http://www.w3.org/2000/svg" xmlns:xlink="http://www.w3.org/1999/xlink" width="40px" height="40px" viewBox="0 0 40 40">
    <!-- Generator: sketchtool 63.1 (101010) - https://sketch.com -->
    <title>6DEFF17D-9AD6-4080-8E50-DE9B92C1E100</title>
    <desc>Created with sketchtool.</desc>
    <g id="8.-Services-Web" stroke="none" stroke-width="1" fill="none" fill-rule="evenodd">
        <g id="1920_Services_Web" transform="translate(-428.000000, -4965.000000)" fill="#F35045" fill-rule="nonzero">
            <g id="7" transform="translate(150.000000, 4001.000000)">
                <g id="left-block" transform="translate(0.000000, 258.000000)">
                    <g id="languages" transform="translate(0.000000, 630.000000)">
                        <g id="2">
                            <g id="3" transform="translate(248.000000, 46.000000)">
                                <g id="logo_laravel" transform="translate(30.000000, 30.000000)">
                                    <g id="Shape">
                                        <path d="M25.0695312,32.5 C25.3820312,32.9514063 25.5729687,32.9167188 25.8159375,32.8125 C26.0589062,32.7082812 38.5590625,28.4895313 38.9409375,28.3507813 C39.3228125,28.211875 39.2014062,28.0903125 39.08,27.8992188 C38.9584375,27.7082813 34.7917187,22.0485938 34.5832812,21.71875 C34.375,21.3889063 34.2707812,21.4582813 33.9409375,21.5625 L20.6901562,25.0104688 C20.6901562,25.0104688 24.7570312,32.0484375 25.0695312,32.5 Z M40,26.7367188 L40,20.1120313 C38.5092188,20.5092188 36.6235937,21.0114063 35.8792187,21.209375 C37.0021875,22.711875 38.7578125,25.0632813 40,26.7367188 Z M35.8664062,13.0501563 C35.6621875,13.0965625 31.1403125,13.91375 30.8617187,13.9507813 C30.5832812,13.9879688 30.6760937,14.1457813 30.7875,14.3035937 L34.7667187,19.7634375 C34.7667187,19.7634375 39.6321875,18.5564062 39.929375,18.4914062 C39.9534375,18.4860937 39.9770312,18.4804688 40,18.4746875 L40,17.7517187 C39.115625,16.6303125 36.70625,13.5770312 36.4979687,13.2917187 C36.2473437,12.948125 36.0707812,13.0039062 35.8664062,13.0501562 L35.8664062,13.0501563 Z"></path>
                                        <path d="M7.415,4.4740625 C8.39421875,4.42953125 8.48359375,4.65234375 8.91375,5.2903125 L19.7215625,23.359375 L33.31125,20.1039062 C32.5582813,19.0365625 29.1401563,14.1904687 28.8096875,13.7279687 C28.4384375,13.2079687 28.8190625,12.9665625 29.4226562,12.8645313 C30.0260938,12.7623437 35.2257812,11.8895313 35.6714062,11.8245312 C36.1171875,11.7595312 36.4701563,11.6017187 37.1942187,12.4745312 C37.5648438,12.9210937 38.8210938,14.4854687 40,15.951875 L40,7.5 C40,5.4340625 39.2664063,3.6675 37.7995313,2.20046875 C36.3325,0.73359375 34.5659375,0 32.5,0 L7.5,0 C5.4340625,0 3.6675,0.73359375 2.20046875,2.20046875 C1.3590625,3.0421875 0.76015625,3.98234375 0.4015625,5.0209375 C2.85125,4.8196875 6.72984375,4.5053125 7.41515625,4.4740625 L7.415,4.4740625 Z"></path>
                                        <path d="M26.2951562,34.931875 C25.1492187,35.2790625 24.6353125,35.4514062 23.8889062,34.4096875 C23.3298437,33.6295312 20.3065625,28.1842187 18.8242187,25.4998437 C16.01875,26.2345312 10.8845312,27.5745312 9.40390625,27.9303125 C7.95890625,28.2775 7.34171875,27.4110937 7.104375,26.8771875 C6.93796875,26.5025 2.70140625,17.3684375 0,11.5078125 L0,32.5 C0,34.5660938 0.73359375,36.3323437 2.20046875,37.7995313 C3.6675,39.2664063 5.4340625,40 7.5,40 L32.5,40 C34.5659375,40 36.3325,39.2664063 37.7995313,37.7995313 C39.2664063,36.3323437 40,34.5660938 40,32.5 L40,30.0342187 C36.93125,31.1567187 27.0671875,34.6979688 26.2951562,34.931875 Z"></path>
                                        <path d="M9.439375,25.82625 C9.845625,25.7332812 17.4570312,23.9117188 17.6195312,23.876875 C17.7820312,23.8420312 17.8864062,23.7492187 17.7123437,23.4476562 C17.5382812,23.1460937 7.56640625,5.93359375 7.56640625,5.93359375 C7.474375,5.775625 7.500625,5.72296875 7.25046875,5.73609375 C7.0275,5.74796875 1.38515625,6.25140625 0.07890625,6.36046875 C0.0403474029,6.63667448 0.0163039513,6.91471275 0.006875,7.1934375 C1.33296875,9.90828125 8.94421875,25.6054687 8.986875,25.7332812 C9.03328125,25.8726562 9.03328125,25.9190625 9.439375,25.82625 Z"></path>
                                    </g>
                                </g>
                            </g>
                        </g>
                    </g>
                </g>
            </g>
        </g>
    </g>
</svg>
