<?xml version="1.0" encoding="UTF-8"?>
<svg version="1.1" xmlns="http://www.w3.org/2000/svg" xmlns:xlink="http://www.w3.org/1999/xlink" width="40px" height="18px" viewBox="0 0 40 18">
    <!-- Generator: sketchtool 63.1 (101010) - https://sketch.com -->
    <title>2F8A44D6-49C2-42DD-BFD2-4F087B313F81</title>
    <desc>Created with sketchtool.</desc>
    <defs>
        <linearGradient x1="50%" y1="0%" x2="50%" y2="100%" id="linearGradient-1">
            <stop stop-color="#2E4F82" offset="0%"></stop>
            <stop stop-color="#182E4D" offset="100%"></stop>
        </linearGradient>
        <linearGradient x1="50%" y1="0%" x2="50%" y2="100%" id="linearGradient-2">
            <stop stop-color="#2E4F82" offset="0%"></stop>
            <stop stop-color="#182E4D" offset="100%"></stop>
        </linearGradient>
    </defs>
    <g id="8.-Services-Web" stroke="none" stroke-width="1" fill="none" fill-rule="evenodd">
        <g id="1920_Services_Web" transform="translate(-428.000000, -4470.000000)">
            <g id="7" transform="translate(150.000000, 4001.000000)">
                <g id="left-block" transform="translate(0.000000, 258.000000)">
                    <g id="front-end">
                        <g id="10" transform="translate(248.000000, 170.000000)">
                            <g id="logo_less" transform="translate(30.000000, 30.000000)">
                                <g transform="translate(0.000000, 11.000000)">
                                    <g id="a-link" transform="translate(2.500000, 0.000000)" fill="url(#linearGradient-2)" fill-rule="nonzero">
                                        <path d="M35.036875,13.8653125 C35.036875,15.6721875 33.523125,17.1504687 31.6729687,17.1504687 L3.3984375,17.1504687 C1.54828125,17.1504687 0.03453125,15.6721875 0.03453125,13.8653125 L0.03453125,3.40328125 C0.03453125,1.5965625 1.54828125,0.118125 3.3984375,0.118125 L31.6729687,0.118125 C33.523125,0.118125 35.036875,1.5965625 35.036875,3.40328125 L35.036875,13.8653125" id="a"></path>
                                    </g>
                                    <g id="c-link">
                                        <polyline id="c" points="0.009375 0.0775 40 0.0775 40 17.1875 0.009375 17.1875"></polyline>
                                    </g>
                                    <g id="Clipped">
                                        <polyline id="c" points="0.009375 0.0775 40 0.0775 40 17.1875 0.009375 17.1875"></polyline>
                                        <path d="M38.2923438,6.3171875 C38.2923438,5.03640625 38.489375,4.28109375 38.489375,2.901875 C38.489375,0.7671875 37.7010937,0.0775 35.960625,0.0775 L34.6798437,0.0775 L34.6798437,1.588125 L35.0739062,1.588125 C35.960625,1.588125 36.1576563,1.88375 36.1576563,2.9675 C36.1576563,3.98546875 36.0590625,5.00359375 36.0590625,6.1859375 C36.0590625,7.6965625 36.5517187,8.28765625 37.536875,8.5175 L37.536875,8.61609375 C36.5517187,8.8459375 36.0590625,9.4371875 36.0590625,10.9478125 C36.0590625,12.13 36.1576563,13.0825 36.1576563,14.16625 C36.1576563,15.2828125 35.9278125,15.5782813 35.0739062,15.5782813 L35.0739062,15.6110938 L34.6798437,15.6110938 L34.6798437,17.1875 L35.960625,17.1875 C37.7010937,17.1875 38.489375,16.4978125 38.489375,14.3632812 C38.489375,12.9510938 38.2923438,12.2285937 38.2923438,10.9478125 C38.2923438,10.258125 38.7192188,9.535625 40,9.47 L40,7.7621875 C38.7192188,7.729375 38.2923438,7.006875 38.2923438,6.3171875 L38.2923438,6.3171875 Z M23.7439063,8.32046875 C22.7257813,7.92640625 21.80625,7.6965625 21.80625,7.0396875 C21.80625,6.5471875 22.2003125,6.2515625 22.9228125,6.2515625 C23.6453125,6.2515625 24.3021875,6.5471875 25.0246875,7.07265625 L26.3382813,5.33203125 C25.5171875,4.708125 24.400625,4.05125 22.89,4.05125 C20.656875,4.05125 19.1460938,5.33203125 19.1460938,7.13828125 C19.1460938,8.7475 20.5582813,9.5684375 21.740625,10.0282813 C22.7585938,10.4223438 23.7439063,10.7507813 23.7439063,11.4075 C23.7439063,11.9001563 23.3496875,12.2285938 22.463125,12.2285938 C21.6420313,12.2285938 20.8210938,11.9001563 19.934375,11.2104688 L18.6535938,13.1153125 C19.63875,13.93625 21.149375,14.4945313 22.3973438,14.4945313 C25.0246875,14.4945313 26.4367188,13.1153125 26.4367188,11.3090625 C26.4367188,9.5028125 25.0246875,8.7475 23.7439063,8.32046875 L23.7439063,8.32046875 Z M31.69125,8.32046875 C30.7060938,7.92640625 29.7865625,7.6965625 29.7865625,7.0396875 C29.7865625,6.5471875 30.180625,6.2515625 30.903125,6.2515625 C31.625625,6.2515625 32.2825,6.5471875 33.005,7.07265625 L34.3185937,5.33203125 C33.4975,4.708125 32.3809375,4.05125 30.8703125,4.05125 C28.6370312,4.05125 27.1264063,5.33203125 27.1264063,7.13828125 C27.1264063,8.7475 28.5385938,9.5684375 29.7207813,10.0282813 C30.7389062,10.4223438 31.7240625,10.7507813 31.7240625,11.4075 C31.7240625,11.9001563 31.33,12.2285938 30.4432812,12.2285938 C29.6223438,12.2285938 28.80125,11.9001563 27.9146875,11.2104688 L26.6009375,13.1153125 C27.58625,13.93625 29.096875,14.4945313 30.3448438,14.4945313 C32.9720313,14.4945313 34.3842188,13.1153125 34.3842188,11.3090625 C34.3842188,9.5028125 32.9720313,8.7475 31.69125,8.32046875 L31.69125,8.32046875 Z M12.1839062,8.15625 C12.3809375,6.84265625 13.1690625,6.21875 14.0885938,6.21875 C15.2709375,6.21875 15.7307813,7.0396875 15.7307813,8.15625 L12.1839062,8.15625 L12.1839062,8.15625 Z M18.2265625,8.7475 C18.259375,6.08734375 16.814375,4.0184375 14.0557812,4.0184375 C11.6584375,4.0184375 9.3596875,6.02171875 9.4253125,9.174375 C9.4253125,12.425625 11.56,14.3303125 14.3842187,14.3303125 C15.5665625,14.3303125 16.8801562,13.9034375 17.898125,13.21375 L16.9129687,11.4732813 C16.1904687,11.9001563 15.5007812,12.0971875 14.7782812,12.0971875 C13.4646875,12.0971875 12.4465625,11.4732813 12.1839062,9.9625 L18.128125,9.9625 C18.1609375,9.73265625 18.2265625,9.27296875 18.2265625,8.7475 L18.2265625,8.7475 Z" id="Shape" fill="#FAF9F8" fill-rule="nonzero"></path>
                                    </g>
                                    <g id="Clipped">
                                        <polyline id="c" points="0.009375 0.0775 40 0.0775 40 17.1875 0.009375 17.1875"></polyline>
                                        <path d="M9.26109375,12.0315625 C9.03125,12.0315625 8.735625,11.8345312 8.735625,11.2104687 L8.735625,0.0775 L4.0721875,0.0775 C2.29890625,0.0775 1.510625,0.7671875 1.510625,2.901875 C1.510625,4.31390625 1.70765625,5.1021875 1.70765625,6.3171875 C1.70765625,7.006875 1.28078125,7.729375 0,7.795 L0,9.5028125 C1.28078125,9.535625 1.70765625,10.258125 1.70765625,10.9478125 C1.70765625,12.1629687 1.510625,12.8853125 1.510625,14.2975 C1.510625,16.4321875 2.29890625,17.121875 4.039375,17.121875 L5.32015625,17.121875 L5.32015625,15.6110938 L4.92609375,15.6110938 C4.10515625,15.6110938 3.84234375,15.2828125 3.84234375,14.1990625 C3.84234375,13.1153125 3.9409375,12.1957813 3.9409375,10.980625 C3.9409375,9.47 3.44828125,8.87875 2.46296875,8.64890625 L2.46296875,8.55046875 C3.44828125,8.32046875 3.9409375,7.729375 3.9409375,6.21875 C3.9409375,5.03640625 3.84234375,4.0840625 3.84234375,3.0003125 C3.84234375,1.9165625 4.0721875,1.62109375 4.92609375,1.62109375 L5.8128125,1.62109375 L5.8128125,11.04625 C5.8128125,13.0495312 6.5025,14.3632812 8.50578125,14.3632812 C9.1296875,14.3632812 9.62234375,14.2646875 9.98359375,14.1332812 L9.65515625,11.99875 C9.458125,12.0315625 9.3596875,12.0315625 9.26109375,12.0315625" id="Shape" fill="#FAF9F8" fill-rule="nonzero"></path>
                                    </g>
                                </g>
                            </g>
                        </g>
                    </g>
                </g>
            </g>
        </g>
    </g>
</svg>
