<?xml version="1.0" encoding="UTF-8"?>
<svg version="1.1" xmlns="http://www.w3.org/2000/svg" xmlns:xlink="http://www.w3.org/1999/xlink" width="40px" height="36px" viewBox="0 0 40 36">
    <!-- Generator: sketchtool 63.1 (101010) - https://sketch.com -->
    <title>F75663C2-B688-4AD5-8762-84B493D78894</title>
    <desc>Created with sketchtool.</desc>
    <g id="8.-Services-Web" stroke="none" stroke-width="1" fill="none" fill-rule="evenodd">
        <g id="1920_Services_Web" transform="translate(-304.000000, -4337.000000)" fill-rule="nonzero">
            <g id="7" transform="translate(150.000000, 4001.000000)">
                <g id="left-block" transform="translate(0.000000, 258.000000)">
                    <g id="front-end">
                        <g id="6" transform="translate(124.000000, 46.000000)">
                            <g id="logo_react" transform="translate(30.000000, 30.000000)">
                                <g transform="translate(0.000000, 2.000000)" id="Shape">
                                    <path d="M0.1178125,17.9296875 C0.1178125,20.9320313 3.04953125,23.7346875 7.67140625,25.3145313 C6.7484375,29.9609375 7.50609375,33.7060938 10.0364063,35.1653125 C12.6371875,36.6653125 16.511875,35.6270313 20.1895313,32.4121875 C23.774375,35.4971875 27.3973438,36.71125 29.9254688,35.2478125 C32.5239063,33.7435937 33.3140625,29.7445313 32.365625,24.9529688 C37.1796875,23.3614062 39.8725,20.9715625 39.8725,17.9296875 C39.8725,14.9970312 36.9354687,12.46 32.3757813,10.8903125 C33.396875,5.90078125 32.5317188,2.2465625 29.8965625,0.72703125 C27.3560938,-0.73796875 23.6909375,0.53890625 20.0534375,3.70453125 C16.2690625,0.34453125 12.6401563,-0.68125 10.0078125,0.8425 C7.4696875,2.31171875 6.74546875,6.125 7.67140625,10.8573438 C3.20546875,12.414375 0.1178125,15.0089063 0.1178125,17.9296875 Z" fill="#FFFFFF"></path>
                                    <path d="M31.4101563,12.4490625 C31.0343701,12.3201605 30.6553956,12.2007477 30.2735938,12.0909375 C30.3369102,11.8336571 30.3954619,11.5752275 30.4492188,11.3157813 C31.3095313,7.13953125 30.7470313,3.77515625 28.8260938,2.66765625 C26.984375,1.60546875 23.9721875,2.71296875 20.93,5.3603125 C20.6302317,5.62177236 20.3371174,5.89076444 20.0509375,6.16703125 C19.8592906,5.98333019 19.6642572,5.80319512 19.4659375,5.62671875 C16.2776562,2.79578125 13.081875,1.60296875 11.1629687,2.71375 C9.32296875,3.77890625 8.77796875,6.941875 9.5525,10.8996875 C9.62956045,11.2916264 9.7165677,11.6815439 9.8134375,12.0690625 C9.36125,12.1975 8.92453125,12.334375 8.50671875,12.48 C4.76890625,13.783125 2.38171875,15.825625 2.38171875,17.9440625 C2.38171875,20.1321875 4.94421875,22.326875 8.83765625,23.6575 C9.15335654,23.7648954 9.47168455,23.8644054 9.79234375,23.9559375 C9.68817217,24.3734282 9.59568815,24.7937485 9.515,25.2164062 C8.7765625,29.1054688 9.35328125,32.1934375 11.1884375,33.2520313 C13.0839063,34.345 16.2651563,33.2215625 19.3629688,30.51375 C19.6078125,30.2996875 19.8535938,30.0726562 20.0996875,29.8346875 C20.4096597,30.1337593 20.7279083,30.4241325 21.0540625,30.7054687 C24.0546875,33.2875 27.018125,34.3301563 28.8517188,33.26875 C30.7454688,32.1725 31.3607813,28.8551562 30.5617188,24.8190625 C30.5007813,24.5107812 30.4296875,24.1959375 30.35,23.8753125 C30.5734375,23.809375 30.7926563,23.74125 31.0065625,23.6703125 C35.0540625,22.329375 37.6873438,20.1614062 37.6873438,17.9440625 C37.6873438,15.8179688 35.2232813,13.7617188 31.4101563,12.4490625 Z" fill="#53C1DE"></path>
                                    <path d="M30.5321875,22.23875 C30.3392187,22.3026562 30.1410938,22.364375 29.9392188,22.4242188 C29.4923437,21.0096875 28.8892187,19.5054687 28.1514063,17.9515625 C28.855625,16.434375 29.4353125,14.9495313 29.8696875,13.5440625 C30.2307812,13.64875 30.5814063,13.7589063 30.9192187,13.8753125 C34.1864062,14.9998438 36.1792188,16.6628125 36.1792188,17.9440625 C36.1792188,19.3089062 34.026875,21.0807812 30.5323438,22.23875 L30.5321875,22.23875 Z M29.0821875,25.1120312 C29.4354687,26.8967187 29.4859375,28.5103125 29.251875,29.7717187 C29.0415625,30.9051562 28.61875,31.6607812 28.0959375,31.9634375 C26.9832813,32.6075 24.60375,31.7703125 22.0378125,29.5621875 C21.7435938,29.3090625 21.4471875,29.03875 21.15,28.7528125 C22.1448438,27.6646875 23.1390625,26.3996875 24.109375,24.995 C25.81625,24.8435937 27.42875,24.5959375 28.8910938,24.2579687 C28.9629688,24.5485937 29.0270313,24.8334375 29.0821875,25.1120312 L29.0821875,25.1120312 Z M14.418125,31.8521875 C13.3310938,32.2360937 12.4653125,32.2470312 11.9420313,31.9453125 C10.8282813,31.303125 10.3654688,28.8234375 10.996875,25.4976562 C11.0719594,25.1046188 11.1579299,24.7137394 11.2546875,24.3254687 C12.7007813,24.6453125 14.3015625,24.8754687 16.0125,25.0142187 C16.9892188,26.38875 18.0121875,27.6521875 19.043125,28.7585937 C18.8240233,28.9705412 18.5997366,29.1770621 18.3704688,29.3779687 C17.000625,30.5754687 15.6279688,31.4248437 14.4182813,31.8521875 L14.418125,31.8521875 Z M9.32546875,22.2303125 C7.60390625,21.641875 6.1821875,20.8771875 5.20765625,20.0428125 C4.33203125,19.2928125 3.88984375,18.5482812 3.88984375,17.9440625 C3.88984375,16.6585937 5.8065625,15.01875 9.00328125,13.9042187 C9.4045155,13.7649402 9.80974115,13.6374377 10.2184375,13.521875 C10.6603125,14.9589063 11.2398438,16.4614062 11.9392188,17.9807812 C11.2307812,19.5228125 10.6429688,21.0492188 10.1970313,22.503125 C9.90431896,22.4193425 9.61371036,22.3283776 9.32546875,22.2303125 L9.32546875,22.2303125 Z M11.0326562,10.61 C10.3690625,7.21890625 10.8096875,4.6609375 11.9185937,4.0190625 C13.0998437,3.3353125 15.7115625,4.3103125 18.464375,6.75453125 C18.6403125,6.91078125 18.8170312,7.074375 18.9940625,7.24359375 C17.9684375,8.345 16.9548438,9.59890625 15.9865625,10.9654687 C14.3260938,11.119375 12.7365625,11.3665625 11.2753125,11.6976563 C11.1853005,11.3371484 11.1043894,10.974429 11.0326562,10.6098438 L11.0326562,10.61 Z M26.261875,14.3704688 C25.9167308,13.7742859 25.5587832,13.1856077 25.1882813,12.6048438 C26.3148438,12.7470312 27.3940625,12.9360938 28.4075,13.1675 C28.1032813,14.1426562 27.7240625,15.1623437 27.2775,16.2076562 C26.9512214,15.5885609 26.6126123,14.976043 26.261875,14.3704688 L26.261875,14.3704688 Z M20.0514063,8.32140625 C20.7470313,9.075 21.44375,9.9165625 22.1290625,10.8295312 C20.7389079,10.7638406 19.3464339,10.7635278 17.95625,10.8285937 C18.6421875,9.9240625 19.3448437,9.08375 20.0514062,8.32140625 L20.0514063,8.32140625 Z M13.8010937,14.3807812 C13.4547478,14.9815394 13.1224699,15.5902989 12.8045312,16.2065625 C12.3653125,15.1648438 11.9895312,14.140625 11.6826562,13.1515625 C12.69,12.9260938 13.7642187,12.741875 14.8834375,12.6020313 C14.5087833,13.1863945 14.1479026,13.7794746 13.8010937,14.3807813 L13.8010937,14.3807812 Z M14.915625,23.39375 C13.759375,23.2646875 12.6689062,23.0898437 11.661875,22.870625 C11.9735937,21.8640625 12.3576562,20.8178125 12.80625,19.75375 C13.1255289,20.3704704 13.459267,20.9795971 13.8071875,21.580625 C14.1622049,22.1937231 14.5317891,22.7982699 14.915625,23.39375 L14.915625,23.39375 Z M20.093125,27.6732813 C19.3782813,26.901875 18.6653125,26.04875 17.9689062,25.1310938 C18.6448437,25.1576562 19.3340625,25.1710938 20.0345313,25.1710938 C20.7542187,25.1710938 21.465625,25.155 22.1657812,25.12375 C21.4782812,26.058125 20.7840625,26.9125 20.093125,27.6732813 Z M27.291875,19.6995313 C27.76375,20.7751563 28.1615625,21.8157813 28.4775,22.8053125 C27.45375,23.0389063 26.3485937,23.2270313 25.1840625,23.3667188 C25.5572424,22.7751116 25.918616,22.1761389 26.2679688,21.5701563 C26.6231071,20.9542884 26.9644937,20.3305923 27.291875,19.6995313 L27.291875,19.6995313 Z M24.9614063,20.8167187 C24.4265937,21.7457744 23.8617119,22.6571935 23.2676562,23.5495312 C22.2201562,23.624375 21.1376562,23.6629687 20.0345312,23.6629687 C18.9359375,23.6629687 17.8671875,23.62875 16.8379687,23.5620312 C16.2285057,22.6717712 15.6529379,21.7587747 15.1125,20.825 C14.5745882,19.8961796 14.0721428,18.9472667 13.60625,17.9803125 C14.0709578,17.0130686 14.5718849,16.0636474 15.1079687,15.1340625 L15.1079687,15.134375 C15.6438844,14.2045921 16.214921,13.2954994 16.8198437,12.4090625 C17.8698437,12.3296875 18.9464062,12.288125 20.0346875,12.288125 C21.1278125,12.288125 22.2057812,12.33 23.2554687,12.41 C23.8542728,13.2950728 24.4216571,14.2010011 24.9565625,15.1260937 C25.4944898,16.0536105 26.002102,16.998381 26.4785937,17.9589063 C26.0070035,18.9292178 25.5010057,19.8824261 24.9615625,20.8167187 L24.9614063,20.8167187 Z M28.0728125,3.97421875 C29.255,4.65609375 29.7148438,7.405625 28.9720313,11.0114062 C28.9233439,11.2463011 28.8704186,11.4802976 28.8132813,11.7132812 C27.3485938,11.3753125 25.7579688,11.12375 24.0926563,10.9675 C23.1225,9.58609375 22.1173438,8.33 21.1082813,7.2428125 C21.3726974,6.98789811 21.6434059,6.73959234 21.9201563,6.498125 C24.5267188,4.2296875 26.9628125,3.3340625 28.0728125,3.97421875 L28.0728125,3.97421875 Z" fill="#FFFFFF"></path>
                                    <path d="M20.0345313,14.7914062 C21.7757813,14.7914062 23.1871875,16.2029688 23.1871875,17.9440625 C23.1871875,19.6853125 21.7757813,21.096875 20.0345313,21.096875 C18.2934375,21.096875 16.881875,19.6853125 16.881875,17.9440625 C16.881875,16.2029688 18.2934375,14.7914062 20.0345313,14.7914062" fill="#53C1DE"></path>
                                </g>
                            </g>
                        </g>
                    </g>
                </g>
            </g>
        </g>
    </g>
</svg>
