<?xml version="1.0" encoding="UTF-8"?>
<svg version="1.1" xmlns="http://www.w3.org/2000/svg" xmlns:xlink="http://www.w3.org/1999/xlink" width="40px" height="40px" viewBox="0 0 40 40">
    <!-- Generator: sketchtool 63.1 (101010) - https://sketch.com -->
    <title>E47C28BD-1525-4230-9E20-E334627E3F8D</title>
    <desc>Created with sketchtool.</desc>
    <g id="8.-Services-Web" stroke="none" stroke-width="1" fill="none" fill-rule="evenodd">
        <g id="1920_Services_Web" transform="translate(-428.000000, -5280.000000)" fill-rule="nonzero">
            <g id="7" transform="translate(150.000000, 4001.000000)">
                <g id="left-block" transform="translate(0.000000, 258.000000)">
                    <g id="cms" transform="translate(0.000000, 945.000000)">
                        <g id="3" transform="translate(248.000000, 46.000000)">
                            <g id="logo_joomla" transform="translate(30.000000, 30.000000)">
                                <g id="Shape">
                                    <path d="M39.6382946,5.51333333 C39.6382946,2.62852713 37.2996899,0.289922481 34.4148837,0.289922481 C31.7807752,0.289922481 29.6032558,2.24 29.2444961,4.77503876 L29.1916279,4.74713178 C24.919845,2.82046512 21.3215504,6.23302326 21.3215504,6.23302326 L11.8035659,15.7976744 L15.5643411,19.4193798 L23.2252713,11.8928682 C26.8026357,8.31534884 28.7505426,10.7367442 28.7505426,10.7367442 C31.4435659,13.0117829 28.8432558,15.7048062 28.8432558,15.7048062 L32.6970543,19.4193798 C35.844031,16.0204651 36.0265116,13.0541085 35.0699225,10.6944186 C37.6454264,10.371938 39.6382946,8.17612403 39.6382946,5.51333333" fill="#F9AE41"></path>
                                    <path d="M35.1184496,29.535969 C35.1362791,29.5026357 35.1463566,29.4832558 35.1463566,29.4832558 C37.0731783,25.2113178 33.6604651,21.6130233 33.6604651,21.6130233 L24.0956589,12.0947287 L20.4741085,15.855814 L28.0006202,23.5165891 C31.5779845,27.0941085 29.1565891,29.0421705 29.1565891,29.0421705 C26.8817054,31.7351938 24.1886822,29.1348837 24.1886822,29.1348837 L20.4741085,32.9885271 C23.8728682,36.1355039 26.8393798,36.3179845 29.1989147,35.3613953 C29.5213953,37.9368992 31.7173643,39.9299225 34.380155,39.9299225 C37.2649612,39.9299225 39.6034109,37.5913178 39.6034109,34.7065116 C39.6034109,32.0724031 37.6534884,29.8948837 35.1184496,29.535969" fill="#EE4035"></path>
                                    <path d="M24.1770543,20.6263566 L16.516124,28.1527132 C12.9386047,31.7303876 10.9906977,29.3091473 10.9906977,29.3091473 C8.29767442,27.0339535 10.8978295,24.3410853 10.8978295,24.3410853 L7.04434109,20.6263566 C3.89736434,24.0251163 3.71472868,26.9914729 4.67116279,29.3511628 C2.09565891,29.6737984 0.102790698,31.8694574 0.102790698,34.5324031 C0.102790698,37.4172093 2.44139535,39.7556589 5.32635659,39.7556589 C7.96046512,39.7556589 10.1379845,37.8058915 10.4967442,35.2708527 C10.5302326,35.2886822 10.5496124,35.2986047 10.5496124,35.2986047 C14.8215504,37.2257364 18.4196899,33.8127132 18.4196899,33.8127132 L27.9378295,24.247907 L24.1770543,20.6263566" fill="#4F91CD"></path>
                                    <path d="M11.7406202,16.5291473 C8.16310078,12.9516279 10.584186,11.0035659 10.584186,11.0035659 C12.8595349,8.31054264 15.5524031,10.9108527 15.5524031,10.9108527 L19.2669767,7.05736434 C15.8682171,3.9103876 12.9018605,3.72790698 10.5421705,4.68434109 C10.2196899,2.10868217 8.02403101,0.115813953 5.36077519,0.115813953 C2.47643411,0.115813953 0.137984496,2.4544186 0.137674419,5.33922481 C0.137674419,7.97348837 2.0875969,10.1510078 4.6227907,10.5097674 C4.60496124,10.5432558 4.59503876,10.5627907 4.59503876,10.5627907 C2.66790698,14.8344186 6.08077519,18.4325581 6.08077519,18.4325581 L15.6457364,27.9508527 L19.2672868,24.1900775 L11.7407752,16.5291473" fill="#7AC043"></path>
                                </g>
                            </g>
                        </g>
                    </g>
                </g>
            </g>
        </g>
    </g>
</svg>
