<?xml version="1.0" encoding="UTF-8"?>
<svg version="1.1" xmlns="http://www.w3.org/2000/svg" xmlns:xlink="http://www.w3.org/1999/xlink" width="18px" height="40px" viewBox="0 0 18 40">
    <!-- Generator: sketchtool 63.1 (101010) - https://sketch.com -->
    <title>989B1C7A-0C0B-49D0-9D5F-9C89DAF051E5</title>
    <desc>Created with sketchtool.</desc>
    <g id="8.-Services-Web" stroke="none" stroke-width="1" fill="none" fill-rule="evenodd">
        <g id="1920_Services_Web" transform="translate(-439.000000, -5471.000000)" fill-rule="nonzero">
            <g id="7" transform="translate(150.000000, 4001.000000)">
                <g id="left-block" transform="translate(0.000000, 258.000000)">
                    <g id="database" transform="translate(0.000000, 1136.000000)">
                        <g id="3" transform="translate(248.000000, 46.000000)">
                            <g id="logo_mongodb" transform="translate(30.000000, 30.000000)">
                                <g transform="translate(11.000000, 0.000000)" id="Shape">
                                    <path d="M9.84980681,39.9907271 L8.78679312,39.6273973 C8.78679312,39.6273973 8.91661398,34.2080787 6.971549,33.8191781 C5.67530734,32.3149982 7.17948718,-29.9709168 11.8468563,33.6115209 C11.8468563,33.6115209 10.2389884,34.4151739 9.9537759,35.7898138 C9.64243063,37.138321 9.84980681,39.9907271 9.84980681,39.9907271 L9.84980681,39.9907271 Z" fill="#FFFFFF"></path>
                                    <path d="M9.84980681,39.9907271 L8.78679312,39.6273973 C8.78679312,39.6273973 8.91661398,34.2080787 6.971549,33.8191781 C5.67530734,32.3149982 7.17948718,-29.9709168 11.8468563,33.6115209 C11.8468563,33.6115209 10.2389884,34.4151739 9.9537759,35.7898138 C9.64243063,37.138321 9.84980681,39.9907271 9.84980681,39.9907271 L9.84980681,39.9907271 Z" fill="#A6A385"></path>
                                    <path d="M10.4205128,34.7529329 C10.4205128,34.7529329 19.7299614,28.6328065 17.5513874,15.9005269 C15.4512118,6.64362487 10.4983491,3.60969442 9.9537759,2.44271163 C9.35749912,1.61292589 8.78679312,0.161011591 8.78679312,0.161011591 L9.17597471,25.9099403 C9.17597471,25.9360731 8.37204074,33.7930453 10.4207938,34.7529329" fill="#FFFFFF"></path>
                                    <path d="M10.4205128,34.7529329 C10.4205128,34.7529329 19.7299614,28.6328065 17.5513874,15.9005269 C15.4512118,6.64362487 10.4983491,3.60969442 9.9537759,2.44271163 C9.35749912,1.61292589 8.78679312,0.161011591 8.78679312,0.161011591 L9.17597471,25.9099403 C9.17597471,25.9360731 8.37204074,33.7930453 10.4207938,34.7529329" fill="#499D4A"></path>
                                    <path d="M8.24250088,35.089568 C8.24250088,35.089568 -0.496522655,29.1253952 0.0221988058,18.623674 C0.514787496,8.12167194 6.68633649,2.96143309 7.87917106,2.02795926 C8.65725325,1.19817352 8.68310502,0.88682824 8.73508957,0.0570425009 C9.2796628,1.22402529 9.17597471,17.5086758 9.25353003,19.427327 C9.48675799,26.8175623 8.83877766,33.6896382 8.24250088,35.089568 Z" fill="#FFFFFF"></path>
                                    <path d="M8.24250088,35.089568 C8.24250088,35.089568 -0.496522655,29.1253952 0.0221988058,18.623674 C0.514787496,8.12167194 6.68633649,2.96143309 7.87917106,2.02795926 C8.65725325,1.19817352 8.68310502,0.88682824 8.73508957,0.0570425009 C9.2796628,1.22402529 9.17597471,17.5086758 9.25353003,19.427327 C9.48675799,26.8175623 8.83877766,33.6896382 8.24250088,35.089568 Z" fill="#58AA50"></path>
                                </g>
                            </g>
                        </g>
                    </g>
                </g>
            </g>
        </g>
    </g>
</svg>
