<?xml version="1.0" encoding="UTF-8"?>
<svg version="1.1" xmlns="http://www.w3.org/2000/svg" xmlns:xlink="http://www.w3.org/1999/xlink" width="40px" height="40px" viewBox="0 0 40 40">
    <!-- Generator: sketchtool 63.1 (101010) - https://sketch.com -->
    <title>30159059-2F63-42D0-9289-CFBC607D8A93</title>
    <desc>Created with sketchtool.</desc>
    <g id="8.-Services-Web" stroke="none" stroke-width="1" fill="none" fill-rule="evenodd">
        <g id="1920_Services_Web" transform="translate(-180.000000, -5471.000000)" fill="#00546B" fill-rule="nonzero">
            <g id="7" transform="translate(150.000000, 4001.000000)">
                <g id="left-block" transform="translate(0.000000, 258.000000)">
                    <g id="database" transform="translate(0.000000, 1136.000000)">
                        <g id="1" transform="translate(0.000000, 46.000000)">
                            <g id="logo_mysql" transform="translate(30.000000, 30.000000)">
                                <g id="Shape">
                                    <path d="M36.82,30.345625 C34.6453125,30.2914062 32.9598437,30.5089062 31.54625,31.106875 C31.1384375,31.2698437 30.4859375,31.27 30.4315625,31.7865625 C30.6490625,32.0040625 30.67625,32.3575 30.8665625,32.6564062 C31.193125,33.2 31.7635937,33.9340625 32.2801562,34.3148438 C32.8509375,34.7496875 33.4220312,35.1845312 34.0198437,35.5651563 C35.0801562,36.2176562 36.2764062,36.598125 37.309375,37.250625 C37.9076562,37.6309375 38.5053125,38.120625 39.1034375,38.5282812 C39.4025,38.7454688 39.5926562,39.0992187 39.9734375,39.235 L39.9734375,39.1535938 C39.7829687,38.90875 39.7285937,38.5554688 39.5384375,38.2835938 C39.266875,38.0117188 38.9946875,37.7670312 38.7228125,37.4951563 C37.9345312,36.4351562 36.9559375,35.5107813 35.8957812,34.7496875 C35.0259375,34.1515625 33.1228125,33.3360938 32.7695312,32.3301563 C32.7695312,32.3301563 32.7421875,32.303125 32.7151562,32.2759375 C33.313125,32.2215625 34.0198437,32.0040625 34.5909375,31.8409375 C35.5151562,31.5960937 36.3578125,31.650625 37.309375,31.4059375 C37.7442187,31.2971875 38.1792187,31.16125 38.6140625,31.0253125 L38.6140625,30.7807813 C38.125,30.2914063 37.7715625,29.6390625 37.255,29.176875 C35.8685937,27.9804688 34.3460937,26.8117188 32.7695312,25.833125 C31.9267187,25.289375 30.8392187,24.9359375 29.9421875,24.4739062 C29.61625,24.310625 29.0723437,24.2292187 28.8821875,23.9573437 C28.3926562,23.359375 28.1207812,22.5710937 27.7675,21.8642187 C26.979375,20.3689062 26.2179687,18.7107812 25.5382812,17.1342187 C25.0492187,16.0739062 24.7501562,15.0135937 24.1520312,14.0351562 C21.3520312,9.41375 18.3073437,6.61375 13.6317187,3.86796875 C12.6257812,3.2971875 11.4296875,3.0525 10.1520312,2.75359375 C9.47265625,2.72625 8.7928125,2.67203125 8.11328125,2.6446875 C7.67828125,2.454375 7.24328125,1.93796875 6.86265625,1.69328125 C5.3134375,0.71453125 1.31703125,-1.405625 0.1753125,1.394375 C-0.55875,3.16125 1.2628125,4.9009375 1.8878125,5.79828125 C2.3503125,6.4234375 2.948125,7.13015625 3.274375,7.83703125 C3.4646875,8.29890625 3.51890625,8.78859375 3.70921875,9.2778125 C4.144375,10.4735938 4.551875,11.8059375 5.12296875,12.920625 C5.42203125,13.4914063 5.748125,14.089375 6.12875,14.6059375 C6.34625,14.9048438 6.72671875,15.0409375 6.8084375,15.5301563 C6.42796875,16.0739063 6.400625,16.8895313 6.18296875,17.5690625 C5.204375,20.6409375 5.58515625,24.4467188 6.97140625,26.7029688 C7.40625,27.3823438 8.439375,28.8779687 9.82578125,28.306875 C11.0492187,27.8176562 10.7773438,26.268125 11.1304687,24.9089062 C11.2123437,24.5823437 11.1579687,24.3651562 11.3209375,24.1476562 L11.3209375,24.2021875 C11.7015625,24.963125 12.0820312,25.6973437 12.4354687,26.4584375 C13.2782812,27.7903125 14.7460937,29.176875 15.969375,30.10125 C16.6220312,30.5903125 17.1384375,31.433125 17.9540625,31.7321875 L17.9540625,31.6504687 L17.8995312,31.6504687 C17.7364062,31.4057812 17.4917187,31.2971875 17.274375,31.1067187 C16.7851562,30.6176562 16.24125,30.0195312 15.8607812,29.4757812 C14.7192187,27.9532812 13.713125,26.2679687 12.8160937,24.528125 C12.38125,23.685625 12.0004687,22.76125 11.6471875,21.9185937 C11.4839062,21.5920312 11.4839062,21.1029687 11.2121875,20.94 C10.804375,21.5379687 10.2064062,22.0545312 9.90734375,22.7884375 C9.39109375,23.9573437 9.3365625,25.398125 9.14625,26.893125 C9.0375,26.920625 9.09171875,26.893125 9.03734375,26.9478125 C8.16765625,26.73 7.86859375,25.833125 7.5421875,25.071875 C6.7265625,23.141875 6.590625,20.0428125 7.29765625,17.81375 C7.48796875,17.2428125 8.30359375,15.44875 7.97734375,14.905 C7.81421875,14.3884375 7.2703125,14.089375 6.97140625,13.6817187 C6.618125,13.1651562 6.23734375,12.5129687 5.9928125,11.941875 C5.3403125,10.4195312 5.0140625,8.7340625 4.30734375,7.21171875 C3.98109375,6.50484375 3.41046875,5.77109375 2.948125,5.11859375 C2.43171875,4.3846875 1.86078125,3.86796875 1.45296875,2.998125 C1.3171875,2.69921875 1.12671875,2.20984375 1.34421875,1.88359375 C1.39859375,1.66609375 1.5071875,1.5846875 1.72484375,1.5303125 C2.07828125,1.23109375 3.08421875,1.61171875 3.43734375,1.77484375 C4.44328125,2.18234375 5.2859375,2.56328125 6.12875,3.1340625 C6.50921875,3.4059375 6.91703125,3.9225 7.40625,4.0584375 L7.9771875,4.0584375 C8.8471875,4.24859375 9.825625,4.1128125 10.64125,4.35734375 C12.0821875,4.819375 13.386875,5.4990625 14.5559375,6.233125 C18.1171875,8.489375 21.0528125,11.6971875 23.0375,15.5301562 C23.36375,16.1551562 23.4995312,16.7264062 23.7985937,17.3785937 C24.3696875,18.7107812 25.0764062,20.07 25.6470312,21.3748437 C26.2179687,22.6523437 26.7615625,23.9573437 27.5771875,25.0176562 C27.985,25.5882812 29.6159375,25.8875 30.35,26.1865625 C30.89375,26.4310937 31.7365625,26.64875 32.2257812,26.9476562 C33.15,27.5182812 34.0742188,28.1710937 34.9442187,28.7960937 C35.3792187,29.1223437 36.7382812,29.8020312 36.82,30.345625 Z"></path>
                                    <path d="M9.0915625,6.7221875 C8.62953125,6.7221875 8.3034375,6.776875 7.9771875,6.85828125 L7.9771875,6.91265625 L8.0315625,6.91265625 C8.24921875,7.34765625 8.62953125,7.64671875 8.90125,8.0271875 C9.11890625,8.46203125 9.3090625,8.8971875 9.52671875,9.3321875 C9.55375,9.30484375 9.5809375,9.2778125 9.5809375,9.2778125 C9.96171875,9.00578125 10.151875,8.5709375 10.151875,7.9184375 C9.98875,7.72828125 9.9615625,7.53796875 9.825625,7.34765625 C9.66265625,7.075625 9.3090625,6.93984375 9.0915625,6.7221875 L9.0915625,6.7221875 Z"></path>
                                </g>
                            </g>
                        </g>
                    </g>
                </g>
            </g>
        </g>
    </g>
</svg>
