<?xml version="1.0" encoding="UTF-8"?>
<svg version="1.1" xmlns="http://www.w3.org/2000/svg" xmlns:xlink="http://www.w3.org/1999/xlink" width="60px" height="24px" viewBox="0 0 60 24">
    <!-- Generator: sketchtool 63.1 (101010) - https://sketch.com -->
    <title>3806EEE2-20DF-4F64-B950-7B21B9E48893</title>
    <desc>Created with sketchtool.</desc>
    <defs>
        <linearGradient x1="49.9972467%" y1="-19.5160457%" x2="49.9972467%" y2="129.625092%" id="linearGradient-1">
            <stop stop-color="#0994DC" offset="0%"></stop>
            <stop stop-color="#66CEF5" offset="35.000601%"></stop>
            <stop stop-color="#66CEF5" offset="35.000601%"></stop>
            <stop stop-color="#127BCA" offset="84.616101%"></stop>
            <stop stop-color="#127BCA" offset="84.616101%"></stop>
            <stop stop-color="#127BCA" offset="100%"></stop>
        </linearGradient>
        <linearGradient x1="50.0007616%" y1="-19.5161868%" x2="50.0007616%" y2="129.624154%" id="linearGradient-2">
            <stop stop-color="#0E76BC" offset="0%"></stop>
            <stop stop-color="#36AEE8" offset="36.0001%"></stop>
            <stop stop-color="#36AEE8" offset="36.0001%"></stop>
            <stop stop-color="#00ADEF" offset="84.616101%"></stop>
            <stop stop-color="#00ADEF" offset="84.616101%"></stop>
            <stop stop-color="#00ADEF" offset="100%"></stop>
        </linearGradient>
        <linearGradient x1="49.9991979%" y1="110.921751%" x2="49.9991979%" y2="-6.21395776%" id="linearGradient-3">
            <stop stop-color="#1C63B7" offset="0%"></stop>
            <stop stop-color="#33BDF2" offset="50%"></stop>
            <stop stop-color="#33BDF2" stop-opacity="0.41960785" offset="100%"></stop>
        </linearGradient>
        <linearGradient x1="50.0009899%" y1="-19.5149993%" x2="50.0009899%" y2="129.627315%" id="linearGradient-4">
            <stop stop-color="#166AB8" offset="0%"></stop>
            <stop stop-color="#36AEE8" offset="39.999399%"></stop>
            <stop stop-color="#36AEE8" offset="39.999399%"></stop>
            <stop stop-color="#0798DD" offset="84.616101%"></stop>
            <stop stop-color="#0798DD" offset="84.616101%"></stop>
            <stop stop-color="#0798DD" offset="100%"></stop>
        </linearGradient>
        <linearGradient x1="49.9985422%" y1="-19.5211325%" x2="49.9985422%" y2="129.626892%" id="linearGradient-5">
            <stop stop-color="#124379" offset="0%"></stop>
            <stop stop-color="#1487CB" offset="38.9999%"></stop>
            <stop stop-color="#1487CB" offset="38.9999%"></stop>
            <stop stop-color="#165197" offset="78.022802%"></stop>
            <stop stop-color="#165197" offset="78.022802%"></stop>
            <stop stop-color="#165197" offset="100%"></stop>
        </linearGradient>
        <linearGradient x1="0.000304652977%" y1="50.000544%" x2="100.000291%" y2="50.000544%" id="linearGradient-6">
            <stop stop-color="#33BDF2" stop-opacity="0.69803923" offset="0%"></stop>
            <stop stop-color="#1DACD8" offset="100%"></stop>
        </linearGradient>
        <linearGradient x1="50.0095709%" y1="94.6864084%" x2="50.0095709%" y2="-3.02458407%" id="linearGradient-7">
            <stop stop-color="#136AB4" offset="0%"></stop>
            <stop stop-color="#59CAF5" stop-opacity="0.54901963" offset="60.000002%"></stop>
            <stop stop-color="#59CAF5" stop-opacity="0.23529412" offset="100%"></stop>
        </linearGradient>
        <linearGradient x1="-0.000760861053%" y1="49.999714%" x2="99.9992241%" y2="49.999714%" id="linearGradient-8">
            <stop stop-color="#05A1E6" stop-opacity="0.24705882" offset="0%"></stop>
            <stop stop-color="#05A1E6" offset="100%"></stop>
        </linearGradient>
        <linearGradient x1="49.9983236%" y1="124.313712%" x2="49.9983236%" y2="-9.42137278%" id="linearGradient-9">
            <stop stop-color="#318ED5" offset="0%"></stop>
            <stop stop-color="#38A7E4" offset="100%"></stop>
        </linearGradient>
        <linearGradient x1="49.99857%" y1="91.1999524%" x2="49.99857%" y2="-76.7854074%" id="linearGradient-10">
            <stop stop-color="#05A1E6" offset="0%"></stop>
            <stop stop-color="#05A1E6" stop-opacity="0.54901963" offset="100%"></stop>
        </linearGradient>
        <linearGradient x1="50.0000694%" y1="100.01049%" x2="50.0000694%" y2="0.0101898204%" id="linearGradient-11">
            <stop stop-color="#1959A6" offset="0%"></stop>
            <stop stop-color="#05A1E6" offset="50%"></stop>
            <stop stop-color="#05A1E6" offset="50%"></stop>
            <stop stop-color="#7EC5EA" offset="91.758698%"></stop>
            <stop stop-color="#7EC5EA" offset="100%"></stop>
        </linearGradient>
        <linearGradient x1="59.7675254%" y1="94.5677442%" x2="38.5140912%" y2="5.75513731%" id="linearGradient-12">
            <stop stop-color="#165096" offset="0%"></stop>
            <stop stop-color="#0D82CA" offset="100%"></stop>
        </linearGradient>
        <linearGradient x1="49.9946843%" y1="76.9980959%" x2="49.9946843%" y2="-3.29893613%" id="linearGradient-13">
            <stop stop-color="#05A1E6" offset="0%"></stop>
            <stop stop-color="#0495D6" offset="87.362701%"></stop>
            <stop stop-color="#0495D6" offset="100%"></stop>
        </linearGradient>
        <linearGradient x1="64.1947779%" y1="-4.16143813%" x2="35.364227%" y2="105.843625%" id="linearGradient-14">
            <stop stop-color="#38A7E4" stop-opacity="0.32941177" offset="0%"></stop>
            <stop stop-color="#0E88D3" offset="96.153301%"></stop>
            <stop stop-color="#0E88D3" offset="96.153301%"></stop>
            <stop stop-color="#0E88D3" offset="100%"></stop>
        </linearGradient>
        <linearGradient x1="50.016714%" y1="-0.295776148%" x2="50.016714%" y2="101.881944%" id="linearGradient-15">
            <stop stop-color="#168CD4" offset="0%"></stop>
            <stop stop-color="#1C87CC" offset="50%"></stop>
            <stop stop-color="#154B8D" offset="100%"></stop>
        </linearGradient>
        <linearGradient x1="16.6738062%" y1="194.344239%" x2="87.8125992%" y2="-14.7990628%" id="linearGradient-16">
            <stop stop-color="#97D6EE" offset="0%"></stop>
            <stop stop-color="#55C1EA" offset="70.329303%"></stop>
            <stop stop-color="#55C1EA" offset="100%"></stop>
        </linearGradient>
        <linearGradient x1="6.89015912%" y1="-11.8201635%" x2="75.7828966%" y2="144.457903%" id="linearGradient-17">
            <stop stop-color="#7ACCEC" offset="0%"></stop>
            <stop stop-color="#3FB7ED" offset="100%"></stop>
        </linearGradient>
        <linearGradient x1="49.9966533%" y1="6.36281892%" x2="49.9966533%" y2="127.96135%" id="linearGradient-18">
            <stop stop-color="#1DA7E7" offset="0%"></stop>
            <stop stop-color="#37ABE7" stop-opacity="0" offset="100%"></stop>
        </linearGradient>
    </defs>
    <g id="8.-Services-Web" stroke="none" stroke-width="1" fill="none" fill-rule="evenodd">
        <g id="1920_Services_Web" transform="translate(-418.000000, -5097.000000)" fill-rule="nonzero">
            <g id="7" transform="translate(150.000000, 4001.000000)">
                <g id="left-block" transform="translate(0.000000, 258.000000)">
                    <g id="languages" transform="translate(0.000000, 630.000000)">
                        <g id="2">
                            <g id="6" transform="translate(248.000000, 170.000000)">
                                <g id="logo_net" transform="translate(20.000000, 38.000000)">
                                    <g id="Group" transform="translate(1.000000, 1.000000)">
                                        <path d="M19.95,4.57499386 C22.049916,10.8491473 22.8454776,22.0416667 28.9859797,22.0416667 L28.9859797,22.0416667 C29.4535638,22.0416667 29.9258444,21.9969791 30.4,21.9088736 L30.4,21.9088736 C24.8179819,20.6372198 24.1564215,9.56644857 20.7502394,3.83333333 L20.7502394,3.83333333 C20.483165,4.0704819 20.2179839,4.31767789 19.95,4.57499386" id="Path" fill="url(#linearGradient-1)"></path>
                                        <path d="M20.9,3.48773255 C24.1452592,9.37258249 24.7755645,20.7363568 30.0938636,22.0416667 L30.0938636,22.0416667 C30.5116797,21.9608539 30.9303978,21.838676 31.35,21.6845527 L31.35,21.6845527 C26.5763032,19.2223597 25.256765,8.1875517 21.5713707,2.875 L21.5713707,2.875 C21.3481641,3.07054424 21.1240909,3.27541516 20.9,3.48773255" id="Path" fill="url(#linearGradient-2)"></path>
                                        <path d="M25.6048548,0 C25.1819972,0 24.7531683,0.0456614053 24.322708,0.135742104 C23.1967865,0.369703505 22.0530861,0.904051319 20.9,1.71264565 C21.2149903,2.05517107 21.514691,2.44726961 21.7965961,2.875 C22.9692272,1.80248533 24.134205,1.0098345 25.2949611,0.533439407 C25.730518,0.35563245 26.1644431,0.221836934 26.6,0.133869671 C26.285834,0.0458097165 25.9546795,0 25.6048548,0" id="Path" fill="#14559A"></path>
                                        <path d="M35.5042296,19.1666667 C36.0185428,18.7631925 36.5338057,18.3169582 37.05,17.8300035 C34.9090437,11.5026057 34.1427427,0 27.9379812,0 C27.4941852,0 27.0466269,0.0408123179 26.6,0.122436956 C32.2518744,1.50928402 32.9758762,13.6408147 35.5042296,19.1666667" id="Path" fill="url(#linearGradient-3)"></path>
                                        <path d="M26.5081039,1.02424269 C26.2372015,0.937563117 25.9516648,0.892423975 25.65,0.892423975 L27.55,0.901192405 C27.2044032,0.901192405 26.8558908,0.941764655 26.5081039,1.02387734" id="Path" fill="#3092C4"></path>
                                        <path d="M34.9693419,20.7964463 C34.7392891,20.5910106 34.5208588,20.3655242 34.305926,20.125 C33.3161367,20.7814083 32.329933,21.2791491 31.35,21.6031843 C31.6986122,21.7627287 32.0641993,21.8813282 32.452131,21.9548139 C32.7525917,22.0122691 33.0638273,22.0416667 33.3910486,22.0416667 C34.49053,22.0416667 35.3599055,21.9197419 36.1,21.5873523 C35.6925321,21.3810398 35.3188903,21.113798 34.9693419,20.7964463" id="Path" fill="#1969BC"></path>
                                        <path d="M24.7,1.34668826 C29.8120266,3.89558685 30.2563781,15.4381142 34.3353462,20.125 L34.3353462,20.125 C34.6088034,19.9412849 34.8794017,19.7466502 35.15,19.5411318 L35.15,19.5411318 C32.596855,14.1491682 31.8666892,2.31062754 26.1603129,0.958333333 L26.1603129,0.958333333 C25.6732286,1.04522414 25.1870843,1.17383903 24.7,1.34668826" id="Path" fill="url(#linearGradient-4)"></path>
                                        <path d="M20.9,3.30015924 C24.7479334,8.59349229 26.125668,19.5883809 31.1099021,22.0416667 L31.1099021,22.0416667 C32.1343397,21.6783509 33.1653141,21.1202725 34.2,20.3842923 L34.2,20.3842923 C30.1954623,15.53576 29.759219,3.59514116 24.7404735,0.958333333 L24.7404735,0.958333333 C23.4662183,1.43399933 22.1873099,2.22707278 20.9,3.30015924" id="Path" fill="url(#linearGradient-5)"></path>
                                        <path d="M17.3078985,4.3522527 C16.6606162,5.65030814 15.9993427,7.35639064 15.2,9.58333333 C16.7896683,7.59680252 18.3743427,5.88537714 19.95,4.49868971 C19.7329181,3.90687822 19.4998235,3.36125451 19.2487148,2.875 C18.6044448,3.31243045 17.9551609,3.80487146 17.3078985,4.3522527" id="Path" fill="url(#linearGradient-6)"></path>
                                        <path d="M19.3502856,2.875 C19.2341212,2.99074115 19.1173755,3.10907867 19,3.23416005 C19.1534286,3.70056399 19.2952552,4.22402082 19.4279505,4.79166667 C19.6027542,4.55335624 19.776371,4.32273379 19.95,4.10227765 C19.7635581,3.65629069 19.5654779,3.2443601 19.3502856,2.875" id="Path" fill="#2B74B1"></path>
                                        <path d="M20.692896,1.91666667 C20.4452568,2.0613423 20.1987679,2.21401207 19.95,2.37381442 C20.3356869,2.81277006 20.6907037,3.30229501 21.0260119,3.83333333 C21.3010653,3.60370761 21.5760536,3.38223626 21.85,3.1728463 C21.4862141,2.71066965 21.0994636,2.28684075 20.692896,1.91666667" id="Path" fill="#125A9E"></path>
                                        <path d="M53.9119619,0.00251529407 C51.0717865,10.7296473 45.1396746,19.3457238 40.1664023,21.518015 L40.1569792,21.518015 C40.0665181,21.5582055 39.9769624,21.5947586 39.8883674,21.6303347 C39.8761729,21.6375729 39.8650869,21.6384777 39.8556825,21.6428206 C39.8295566,21.6531352 39.8053156,21.6610972 39.7791897,21.6713213 C39.7669951,21.6785595 39.7559093,21.680912 39.7447309,21.6852549 C39.7027891,21.6999124 39.6617158,21.7123079 39.6206795,21.7283768 C39.602942,21.7356151 39.5862022,21.740139 39.5693332,21.7459296 C39.5506719,21.7531679 39.5291836,21.7598633 39.5077695,21.765672 C39.4891266,21.7729102 39.4695785,21.778158 39.4480718,21.78612 C39.4303344,21.7933583 39.411673,21.7964346 39.3949516,21.8036728 C39.3585344,21.8139873 39.3250364,21.8226732 39.2886194,21.8350868 C39.2736532,21.8350868 39.2597405,21.8430489 39.2438507,21.846849 C39.2214572,21.8540873 39.1962366,21.859335 39.1719955,21.8658494 C39.1551817,21.8730877 39.1412506,21.8754401 39.1234944,21.8790592 C39.098274,21.8862975 39.0702821,21.8929929 39.0451356,21.8988016 C39.0115638,21.9060399 38.981724,21.9127352 38.95,21.9192678 C39.1747855,22.0005896 39.4089015,22.0416667 39.6616789,22.0416667 C44.3775178,22.0416667 49.132453,13.7645396 57,0 L53.9108348,0 L53.9119619,0.00251529407 Z" id="Path" fill="url(#linearGradient-7)"></path>
                                        <path d="M14.4439865,1.39609746 C14.4468931,1.39609746 14.4505262,1.38889442 14.4523428,1.38889442 C14.455976,1.38889442 14.4616074,1.38889442 14.463424,1.3816914 L14.4692371,1.3816914 C14.4949055,1.37304776 14.5187573,1.36278344 14.5444257,1.35332947 C14.5509655,1.35332947 14.554417,1.35332947 14.5591401,1.34612644 C14.5656798,1.34612644 14.5720379,1.33892341 14.5784323,1.33802303 C14.6059536,1.32937939 14.6334568,1.31911508 14.6591434,1.3096611 L14.6635032,1.3096611 C14.7249765,1.29149146 14.7817995,1.26894598 14.8414018,1.24785911 C14.8497581,1.24785911 14.8579327,1.24065608 14.8679603,1.24065608 C14.8927567,1.23273274 14.9184433,1.22390903 14.9440754,1.21811059 C14.9560649,1.21090756 14.9679272,1.21090756 14.9789176,1.20712597 C15.0054761,1.19920264 15.0312353,1.19037893 15.0559591,1.18458049 C15.0670403,1.18458049 15.077086,1.17737746 15.085297,1.17665716 C15.1705859,1.15339137 15.2549483,1.13156619 15.3402372,1.11119963 C15.3522267,1.11119963 15.3622542,1.1039966 15.3750793,1.10327629 C15.3998031,1.09607327 15.422783,1.09229167 15.4493597,1.08869016 C15.4604409,1.08148713 15.4732115,1.08148713 15.4860548,1.07770554 C15.5107786,1.07050251 15.5346122,1.06978221 15.5612434,1.06383971 L15.5786827,1.06383971 C15.6300377,1.05357539 15.6823191,1.04493176 15.7336741,1.03547778 L15.7648467,1.03547778 C15.7895705,1.02827475 15.8115876,1.02755445 15.836384,1.02305255 C15.8500085,1.02305255 15.8638872,1.01584952 15.8767305,1.01584952 C15.8996195,1.01584952 15.9225812,1.00864649 15.9454702,1.00558521 C15.9574597,1.00558521 15.9693039,1.00558521 15.9831099,0.998382177 C16.0371716,0.991179146 16.0931408,0.988297936 16.15,0.983796041 C15.9895225,0.968489603 15.824449,0.958333333 15.6566325,0.958333333 C10.4350065,0.958333333 3.2408225,10.5624028 0,23 L0.624505245,23 C1.66167781,21.1664868 2.59339191,19.4320153 3.44532323,17.8038785 C5.71499894,8.99432124 10.3378008,2.98638232 14.4443135,1.39467486" id="Path" fill="url(#linearGradient-8)"></path>
                                        <path d="M17.1,3.83333333 C17.733689,3.37105408 18.3692793,2.95517343 19,2.58581015 C18.8560653,2.34454029 18.7072028,2.12124509 18.5475146,1.91666667 C18.0372924,2.39021162 17.5711101,3.01512353 17.1,3.83333333" id="Path" fill="#0D82CA"></path>
                                        <path d="M18.0997135,0.985751229 C18.3565416,1.21717238 18.5864136,1.53540216 18.7970157,1.91666667 C18.8632912,1.82913805 18.9302917,1.74826554 19,1.67260919 C18.7079827,1.37963737 18.392442,1.13931202 18.05,0.958333333 C18.0638131,0.966561641 18.0776125,0.973173674 18.0919727,0.979697547 C18.0919727,0.979697547 18.0974432,0.985574909 18.0997682,0.985574909" id="Path" fill="#0D82CA"></path>
                                        <path d="M2.85,17.25 C7.78486611,8.22011907 10.1230351,2.50527137 14.25,0.958333333 L14.25,0.958333333 C9.9947209,2.53963386 5.20242568,8.504441 2.85,17.25" id="Path" fill="url(#linearGradient-9)"></path>
                                        <path d="M19.2695835,1.91666667 C19.1770158,1.99747929 19.0889893,2.08217564 19,2.17471713 C19.1494962,2.38877272 19.2888201,2.62171875 19.4246018,2.875 C19.6006549,2.75974645 19.7757634,2.6507069 19.95,2.54405971 C19.7345475,2.31662857 19.5071244,2.1056955 19.2695835,1.91666667" id="Path" fill="#127BCA"></path>
                                        <path d="M5.13988728,22.9713797 L5.13988728,22.9713797 C5.1098991,22.9784464 5.0799109,22.9784464 5.05179581,22.9814498 L5.03492119,22.9814498 C5.00958143,22.9814498 4.9833413,22.9885165 4.95995072,22.9885165 L4.94773565,22.9885165 C4.88685893,22.9955833 4.82684543,22.9955833 4.76874214,23 L4.75,23 C9.6746438,22.8688586 11.9256366,20.5223539 13.0427031,17.1190487 C13.8917435,14.5389519 14.5889865,12.3654773 15.2,10.5416667 C13.1373607,13.3046339 11.0653465,16.5982098 8.98210118,20.2878253 C7.9774913,22.066179 6.44996307,22.809056 5.1398483,22.9678815" id="Path" fill="url(#linearGradient-10)"></path>
                                        <path d="M5.7,23 L5.7,23 C6.94102199,22.8364704 8.38799325,22.0724836 9.33962029,20.2405707 L9.33962029,20.2405707 C11.3129977,16.4426287 13.2766173,13.0505638 15.2287012,10.2057681 L15.2287012,10.2057681 C15.938868,7.89996504 16.5247622,6.13513741 17.1,4.79166667 L17.1,4.79166667 C13.2091616,8.62267836 9.30322303,14.9927273 5.7,22.9981626" id="Path" fill="url(#linearGradient-11)"></path>
                                        <path d="M3.8,17.25 C2.93929196,19.0516874 1.9979409,20.9710442 0.95,23 L2.78548875,23 C3.02824011,20.985033 3.37290838,19.0636835 3.8,17.2509565" id="Path" fill="#05A1E6"></path>
                                        <path d="M16.2654769,0.963942546 C16.250895,0.963942546 16.2400216,0.97115697 16.2273119,0.97115697 L16.2273119,0.97115697 C16.205493,0.978371392 16.182738,0.978371392 16.1600551,0.98071608 L16.1600551,0.98071608 C16.1465533,0.98071608 16.1337356,0.98071608 16.1200718,0.987930502 L16.1200718,0.987930502 C16.0954986,0.995144924 16.0728156,0.995866367 16.0491785,1.00037538 L16.0491785,1.00037538 C16.0381971,1.00037538 16.0273776,1.00037538 16.0182865,1.0075898 L16.0182865,1.0075898 C15.9664396,1.01624711 15.915583,1.02580622 15.8646903,1.03453567 L15.8646903,1.03453567 L15.847408,1.03453567 L15.847408,1.03453567 C15.8210886,1.0417501 15.7973974,1.04553767 15.7728962,1.04914488 L15.7728962,1.04914488 C15.7601145,1.0563593 15.7474409,1.0563593 15.7355953,1.05924507 L15.7355953,1.05924507 C15.7110941,1.06645949 15.6865209,1.06952562 15.6629018,1.07385428 L15.6629018,1.07385428 C15.6501201,1.0810687 15.6402188,1.0810687 15.6283552,1.08179014 L15.6283552,1.08179014 C15.5438522,1.10218892 15.4602312,1.12404862 15.3757101,1.14735121 L15.3757101,1.14735121 C15.3667089,1.14735121 15.3575457,1.15456563 15.3466362,1.15600852 L15.3466362,1.15600852 C15.3211989,1.16322294 15.2966257,1.17061772 15.2703062,1.17858966 L15.2703062,1.17858966 C15.2593248,1.18580408 15.2466691,1.18580408 15.2357597,1.18868985 L15.2357597,1.18868985 C15.2103223,1.19590427 15.184867,1.20329906 15.1603298,1.21127099 L15.1603298,1.21127099 C15.1504285,1.21127099 15.1421654,1.21848542 15.1330742,1.21848542 L15.1330742,1.21848542 C15.0749086,1.24032708 15.0176611,1.26218678 14.9576772,1.2804032 L14.9576772,1.2804032 L14.9576772,1.2804032 L14.9576772,1.2804032 C14.9322398,1.28833906 14.9049662,1.29860158 14.8777107,1.30807051 L14.8777107,1.30807051 C14.8667292,1.31528493 14.8567739,1.31690818 14.8441182,1.32195827 L14.8441182,1.32195827 C14.8186629,1.32989414 14.7932256,1.34017469 14.7695885,1.34964362 L14.7695885,1.34964362 C14.7605873,1.35685804 14.7514241,1.35757949 14.7450872,1.36136706 L14.7450872,1.36136706 C10.7991473,2.92193687 8.56353449,8.68714441 3.84512028,17.7965976 L3.84512028,17.7965976 C3.42616926,19.4373016 3.08719195,21.1763202 2.85,23 L2.85,23 L3.10264157,23 C3.81422102,23 4.01506259,22.9927856 4.83387851,22.9927856 L4.83387851,22.9927856 L4.8756818,22.9927856 L4.99745879,22.9927856 L5.03926388,22.9927856 L5.05110945,22.9927856 L5.09291274,22.9927856 L5.11654084,22.9927856 L5.13290499,22.9927856 L5.16562068,22.9927856 L5.26740606,22.9927856 L5.36918961,22.9927856 L5.45461443,22.9927856 L5.4772992,22.9927856 L5.62724811,22.9927856 L5.62724811,22.9927856 C5.6835919,22.9855712 5.74175574,22.9855712 5.80082689,22.9810622 L5.80082689,22.9810622 L5.81173633,22.9810622 L5.81173633,22.9810622 C5.83630956,22.9810622 5.86081077,22.9738478 5.88443887,22.9738478 L5.88443887,22.9738478 L5.90166713,22.9738478 L5.90166713,22.9738478 C5.92798479,22.9738478 5.95801093,22.9666334 5.98709196,22.9635671 L5.98709196,22.9635671 C9.67585376,15.0259527 13.6745047,8.70986985 17.6577077,4.91131394 L17.6577077,4.91131394 C18.0957413,3.9170763 18.5274199,3.15772225 19,2.58323776 L19,2.58323776 C18.7237177,2.1152562 18.421098,1.72374751 18.0830316,1.43960747 L18.0830316,1.43960747 C18.0830316,1.43960747 18.0738504,1.43960747 18.0731303,1.43239305 L18.0731303,1.43239305 C18.0540118,1.42445719 18.0359194,1.41489808 18.0168009,1.40544718 L18.0168009,1.40544718 C17.9976644,1.39516663 17.9813182,1.38723076 17.9613896,1.37704039 L17.9613896,1.37704039 C17.9441074,1.36982597 17.9241067,1.36026686 17.9068605,1.35081596 L17.9068605,1.35081596 C17.8832414,1.34360154 17.8641228,1.33332099 17.8432581,1.32385206 L17.8432581,1.32385206 C17.8259758,1.31663764 17.8105298,1.30924285 17.7932295,1.3020104 L17.7932295,1.3020104 C17.7577469,1.28812263 17.7223542,1.27360361 17.6887258,1.25830903 L17.6887258,1.25830903 C17.6732438,1.25109461 17.6587699,1.24730704 17.644152,1.2415355 L17.644152,1.2415355 C17.6196507,1.23269783 17.591441,1.22113672 17.5660037,1.21020687 L17.5660037,1.21020687 C17.553222,1.20299244 17.5387301,1.20154956 17.5242022,1.1963191 L17.5242022,1.1963191 C17.4869733,1.18387422 17.4505905,1.17083416 17.416044,1.15916483 L17.416044,1.15916483 L17.4070428,1.15916483 L17.4070428,1.15916483 C17.3652233,1.14527706 17.32434,1.1351408 17.2816204,1.12347147 L17.2816204,1.12347147 C17.271719,1.11625705 17.263438,1.11625705 17.2534827,1.11481416 L17.2534827,1.11481416 C17.2161817,1.10453361 17.1834714,1.09441538 17.1480608,1.08494645 L17.1480608,1.08494645 C17.1390596,1.08494645 17.1307785,1.07773203 17.1235596,1.07773203 L17.1235596,1.07773203 C17.0381384,1.05515089 16.9499808,1.0369525 16.8609231,1.02019701 L16.8609231,1.02019701 C16.8517419,1.02019701 16.8427587,1.01298258 16.8336675,1.01298258 L16.8336675,1.01298258 C16.7955025,1.00576816 16.7582376,0.99909482 16.7200726,0.994766168 L16.7200726,0.994766168 C16.7108914,0.987551744 16.7054907,0.987551744 16.6973896,0.987551744 L16.6973896,0.987551744 C16.6519517,0.980337322 16.6074138,0.975106866 16.562876,0.970056769 L16.562876,0.970056769 L16.5392569,0.970056769 L16.5392569,0.970056769 C16.5029101,0.962842347 16.4693177,0.962120903 16.4356533,0.958333333 L16.4356533,0.958333333 C16.3783697,0.965547755 16.3238766,0.968613885 16.2702475,0.973663982" id="Path" fill="url(#linearGradient-12)"></path>
                                        <path d="M43.2328088,6.28334336 C42.2851833,9.13240106 41.517778,11.4828679 40.85,13.4166667 L40.85,13.4166667 C43.4500273,10.0583479 46.0111768,5.83369451 48.45,0.958333333 L48.45,0.958333333 C45.6051887,1.796943 44.0874772,3.7165618 43.2328088,6.28334336" id="Path" fill="url(#linearGradient-13)"></path>
                                        <path d="M41.2272356,21.8545053 C41.1008946,21.9211315 40.9745533,21.9845506 40.85,22.0416667 C45.6620647,19.8162516 51.4018883,10.9894668 54.15,0 L53.5931302,0 C47.2793276,11.6950853 45.2487341,19.5242753 41.2272356,21.8545053" id="Path" fill="url(#linearGradient-14)"></path>
                                        <path d="M37.9785924,20.125 C38.9596753,18.9056271 39.7588932,16.8328758 40.85,13.4166667 C39.5914367,15.1768514 38.3245467,16.6899239 37.0567016,17.9239161 C37.0567016,17.9307396 37.0567016,17.9307396 37.05,17.9350042 C37.3266092,18.7789322 37.6301922,19.5237832 37.9761463,20.1248635" id="Path" fill="#079AE1"></path>
                                        <path d="M37.4532081,20.125 C37.1165816,20.6295355 36.7604413,21.0137065 36.3641598,21.2984135 C36.277243,21.3603893 36.1895163,21.4187573 36.1,21.4721697 C36.5184454,21.7495159 36.9751248,21.9348212 37.4863948,22.0090926 L37.4863948,22.0090926 C37.5613263,22.0182158 37.6354984,22.026717 37.7130801,22.0333728 L37.7267531,22.0333728 C37.7615265,22.0333728 37.7983425,22.0333728 37.8358336,22.0416667 L37.850857,22.0416667 L37.9625201,22.0416667 L38.0827077,22.0416667 L38.1202157,22.0416667 L38.2054274,22.0416667 C38.2191006,22.0416667 38.2333642,22.0416667 38.2470035,22.0333728 C38.2735899,22.0333728 38.3015437,22.0333728 38.3288055,22.025079 L38.3384272,22.025079 L38.3690987,22.025079 C38.3970524,22.025079 38.4277239,22.0167851 38.4577201,22.0132602 L38.4644724,22.0132602 C38.4734188,22.0132602 38.4828717,22.0049664 38.4917339,22.0049664 C38.5230974,21.9966726 38.5558284,21.9931477 38.5863648,21.987342 L38.6143186,21.987342 C38.6490751,21.9790481 38.6850132,21.9738645 38.7207995,21.9655706 L38.7275516,21.9655706 L38.7378486,21.9655706 C38.8094377,21.9487756 38.8793054,21.9320842 38.95,21.9103129 C38.3637307,21.646527 37.8729027,21.0247788 37.4502372,20.1392654" id="Path" fill="#1969BC"></path>
                                        <path d="M28.5,22.0416667 C28.9554077,22.0416667 29.4153527,21.9526127 29.8771055,21.7751918 C30.3042038,21.6201157 30.7321699,21.3826747 31.1610759,21.0833333 C31.5179252,21.4320286 31.8920746,21.6912359 32.2881338,21.851844 C32.5956498,21.9774162 32.9150424,22.0416667 33.25,22.0416667 L28.5,22.0416667 L28.5,22.0416667 Z" id="Path" fill="#1E5CB3"></path>
                                        <path d="M33.2532044,22.0413876 C34.3727627,22.0413876 35.2596896,21.7842737 36.0130641,21.0833333 C36.4592278,21.5499757 36.9463086,21.8617568 37.4915336,21.9868599 L37.4915336,21.9868599 C37.5715136,22.00221 37.6506116,22.0165135 37.7332738,22.0277121 L37.7478549,22.0277121 C37.7849376,22.0277121 37.8241987,22.0277121 37.8641797,22.0416667 L37.880921,22.0416667 L38,22.0416667 L33.25,22.0416667 L33.2532044,22.0413876 Z" id="Path" fill="#1E5CB3"></path>
                                        <path d="M38,22.0983418 L38.1402789,22.0983418 L38.1837382,22.0983418 L38.2815757,22.0983418 C38.2982081,22.0983418 38.3139598,22.0983418 38.3297703,22.0910348 C38.360589,22.0910348 38.3929927,22.0910348 38.4256312,22.0837277 L38.4360021,22.0837277 L38.4723583,22.0837277 C38.5047424,22.0837277 38.540316,22.0764207 38.5741286,22.0734979 L38.5827384,22.0734979 C38.593109,22.0734979 38.6032842,22.0661909 38.6135572,22.0661909 C38.6499134,22.0588838 38.6878548,22.055961 38.7231739,22.0506634 C38.7351101,22.0506634 38.7445024,22.0506634 38.757143,22.0433564 C38.7974519,22.0360494 38.8391697,22.0322132 38.8806723,22.0249245 L38.8884993,22.0249245 L38.9004355,22.0249245 C38.9834212,22.0101277 39.0644108,21.9954041 39.1463593,21.9762231 L39.1463593,21.9762231 C39.3843778,22.0582628 39.6323564,22.0998032 39.9,22.0998032 L38.0014676,22.1071102 L38,22.0983418 Z" id="Path" fill="#1D60B5"></path>
                                        <path d="M36.1815116,18.2162495 L36.1815116,18.2083333 C35.7469067,18.7328004 35.3130703,19.213392 34.8800023,19.6479311 C34.6535805,19.8747496 34.4279899,20.0895157 34.2,20.2923679 C34.3907601,20.5800817 34.5847508,20.8498257 34.7889977,21.0956034 C35.0993355,21.4751647 35.4310015,21.794939 35.7928246,22.0416667 C35.8751569,21.9905083 35.9574893,21.934719 36.0374221,21.8758226 C36.4063337,21.6040798 36.7372625,21.2374614 37.05,20.7559199 C36.7261751,20.0585832 36.4419954,19.1943535 36.1830955,18.2152996" id="Path" fill="#175FAB"></path>
                                        <path d="M51.3658127,0 L48.9280792,0 L48.6856073,0 L48.6856073,0 L48.4563153,0 L48.4563153,0 L48.4473797,0 C48.2894981,0.00728017785 48.1363637,0.0125583068 47.9850164,0.0220589388 L47.9850164,0.0220589388 C47.913606,0.171866799 47.8402965,0.321656458 47.7697795,0.47233794 L47.7697795,0.47233794 C45.3536963,5.50352325 42.8163493,9.86320315 40.2404858,13.328859 L40.2404858,13.328859 C39.0291308,16.9736437 38.1401284,19.1851979 37.05,20.4862021 L37.05,20.4862021 C37.5161235,21.2634885 38.0583673,21.8101206 38.703036,22.0416667 L38.703036,22.0416667 C38.7218381,22.0343865 38.7368611,22.0343865 38.7537828,22.0305644 L38.7537828,22.0305644 L38.7642077,22.0305644 L38.7642077,22.0305644 C38.7755635,22.0305644 38.7876638,22.0232842 38.7999318,22.0232842 L38.7999318,22.0232842 C38.8262361,22.0160041 38.8544391,22.0114539 38.8807434,22.0034457 L38.8807434,22.0034457 C38.8976838,21.9961656 38.9117203,21.9954375 38.9287165,21.9901594 L38.9287165,21.9901594 C38.9531406,21.9828792 38.9784768,21.9776011 39.0010392,21.971777 L39.0010392,21.971777 C39.0161182,21.9644968 39.031104,21.9621307 39.0461456,21.9592187 L39.0461456,21.9592187 C39.0837312,21.9473884 39.1175563,21.938634 39.1532801,21.9276045 L39.1532801,21.9276045 C39.1702205,21.9203243 39.1880919,21.9143181 39.2068752,21.9099501 L39.2068752,21.9099501 C39.2275574,21.9026699 39.2482211,21.8973918 39.2670232,21.8886373 L39.2670232,21.8886373 C39.2886735,21.8813571 39.3102494,21.8775351 39.3290513,21.8695269 L39.3290513,21.8695269 C39.3459919,21.8622467 39.3637887,21.8576966 39.3797984,21.8511444 L39.3797984,21.8511444 C39.4220379,21.8364021 39.4634396,21.823953 39.5057164,21.8077727 L39.5057164,21.8077727 C39.5170719,21.8077727 39.5282788,21.7975805 39.540528,21.7952144 L39.540528,21.7952144 C39.5658642,21.7848402 39.5921871,21.776832 39.6175979,21.7658025 L39.6175979,21.7658025 C39.6269058,21.7585224 39.6382616,21.7577943 39.6504363,21.7539722 L39.6504363,21.7539722 C39.7387874,21.7179536 39.8299308,21.6812069 39.9210929,21.6410021 L39.9210929,21.6410021 L39.9305869,21.6410021 L39.9305869,21.6410021 C40.0602654,21.5851449 40.1918425,21.5224444 40.3224703,21.4572504 L40.3224703,21.4572504 C44.5109732,19.1694727 46.6254602,11.4829153 53.2,0.000891821775 L53.2,0.000891821775 L51.3637092,0.000891821775 L51.3658127,0 Z" id="Path" fill="url(#linearGradient-15)"></path>
                                        <path d="M16.15,0.962418696 C16.1587722,0.962418696 16.1666359,0.962418696 16.1752984,0.967573727 C16.1966181,0.967573727 16.2180004,0.967573727 16.2393513,0.973244262 L16.2607336,0.973244262 C16.2994567,0.978399294 16.3382268,0.981105686 16.3777644,0.985745215 C16.3849702,0.985745215 16.391236,0.985745215 16.3975019,0.990900247 C16.4298965,0.99605528 16.4631369,1.00030818 16.496346,1.00443221 C16.5035518,1.00443221 16.5129976,1.00958724 16.5208926,1.00958724 C16.5968193,1.02208819 16.6743124,1.03509176 16.7486413,1.05122701 C16.7556904,1.05122701 16.7628962,1.05638204 16.769209,1.05638204 C16.800836,1.06256808 16.8292987,1.0704295 16.8609257,1.07771099 C16.8704812,1.07771099 16.8774989,1.08286602 16.8862398,1.0840259 C16.9234278,1.09188732 16.9582033,1.09964565 16.9945767,1.10953042 C16.9961432,1.10953042 16.9983362,1.10953042 17.0025657,1.11468545 C17.0333625,1.122418 17.0650051,1.1323801 17.0974467,1.14122098 C17.1101351,1.14637601 17.1219306,1.1485669 17.13382,1.15114442 C17.1559699,1.15900584 17.1805164,1.16675128 17.2018361,1.17404565 C17.2145245,1.17404565 17.2271345,1.18126269 17.2405435,1.18500009 C17.2697738,1.19595453 17.3006488,1.20581353 17.3306937,1.2162267 C17.346515,1.22138173 17.359924,1.22718114 17.3749777,1.23183356 C17.3923812,1.23917947 17.4105366,1.2458939 17.4295221,1.25110049 C17.4453278,1.25728653 17.4627313,1.26410405 17.4777224,1.26982614 C17.4943582,1.27717206 17.5101169,1.2828426 17.5259852,1.29012408 C17.9182131,1.44887329 18.2795972,1.6603327 18.6141007,1.91666667 C18.73746,1.80997039 18.866349,1.71430589 19,1.62843594 C18.2685222,1.20165084 17.4397982,0.958333333 16.4837516,0.958333333 C16.3730337,0.958333333 16.2623314,0.963488365 16.150047,0.970318782" id="Path" fill="#7DCBEC"></path>
                                        <path d="M19,2.25822497 C19.1732779,2.44399359 19.3391873,2.65141791 19.496403,2.875 C19.6482646,2.75319051 19.798801,2.63599319 19.95,2.52652348 C19.7519663,2.29831397 19.5432377,2.09324154 19.3258021,1.91666667 C19.2127441,2.01769095 19.1043643,2.13178807 19,2.25822497" id="Path" fill="#5EC5ED"></path>
                                        <path d="M15.7151569,1.89176291 C15.8511276,1.90283125 15.9851833,1.90744305 16.119239,1.90744305 C17.2769057,1.90744305 18.2804082,1.56247995 19.1661334,0.958333333 C20.100693,1.66855149 21.230591,1.91666667 22.8,1.91666667 L15.2,1.91666667 C15.3752299,1.91666667 15.5466297,1.90652069 15.7151569,1.89176291" id="Path" fill="url(#linearGradient-16)" transform="translate(19.000000, 1.437500) scale(-1, 1) rotate(-180.000000) translate(-19.000000, -1.437500) "></path>
                                        <path d="M23.2918043,1.91666667 C21.8485323,1.91666667 20.8094469,1.63492714 19.95,0.828460838 C20.2353082,0.588615664 20.5100494,0.310018217 20.7707013,0 C21.9674108,0.904918033 23.1526726,1.50400729 24.3212033,1.765847 C24.7667774,1.86534608 25.2114706,1.91666667 25.65,1.91666667 L23.2918043,1.91666667 L23.2918043,1.91666667 Z" id="Path" fill="url(#linearGradient-17)" transform="translate(22.800000, 0.958333) scale(-1, 1) rotate(-180.000000) translate(-22.800000, -0.958333) "></path>
                                        <path d="M41.0667747,13.3766752 C41.698307,11.3690196 42.4212091,8.93199749 43.3179069,5.97587934 C44.1259325,3.31256678 45.5565288,1.32153998 48.2430205,0.452580931 C48.3139834,0.303854861 48.3809892,0.150555419 48.45,0 C44.0703901,0.270615591 42.0234869,2.56727173 40.9933099,5.96850706 C39.1918576,11.9064823 38.1007615,15.7555606 37.05,18.2083333 C38.3919061,16.885897 39.7338123,15.262423 41.0667747,13.3766752" id="Path" fill="url(#linearGradient-18)"></path>
                                    </g>
                                </g>
                            </g>
                        </g>
                    </g>
                </g>
            </g>
        </g>
    </g>
</svg>
