<?xml version="1.0" encoding="UTF-8"?>
<svg version="1.1" xmlns="http://www.w3.org/2000/svg" xmlns:xlink="http://www.w3.org/1999/xlink" width="40px" height="40px" viewBox="0 0 40 40">
    <!-- Generator: sketchtool 63.1 (101010) - https://sketch.com -->
    <title>E61D8D8E-8CFE-407A-A982-758C44B80AFB</title>
    <desc>Created with sketchtool.</desc>
    <g id="8.-Services-Web" stroke="none" stroke-width="1" fill="none" fill-rule="evenodd">
        <g id="1920_Services_Web" transform="translate(-180.000000, -5280.000000)">
            <g id="7" transform="translate(150.000000, 4001.000000)">
                <g id="left-block" transform="translate(0.000000, 258.000000)">
                    <g id="cms" transform="translate(0.000000, 945.000000)">
                        <g id="1" transform="translate(0.000000, 46.000000)">
                            <g id="logo_opencart" transform="translate(30.000000, 30.000000)">
                                <g>
                                    <rect id="Rectangle-13" fill="#FFFFFF" x="0" y="0" width="40" height="40"></rect>
                                    <path d="M20,0 C31.045695,0 40,8.954305 40,20 C40,31.045695 31.045695,40 20,40 C8.954305,40 0,31.045695 0,20 C0,8.954305 8.954305,0 20,0 Z M23.2552083,26 C22.1675621,26 21.25,26.9151789 21.25,28 C21.25,29.0848217 22.1675621,30 23.2552083,30 C24.3428551,30 25.2604167,29.0848217 25.2604167,28 C25.2604167,26.9151789 24.3428551,26 23.2552083,26 Z M14.6614583,26 C13.5738121,26 12.65625,26.9151789 12.65625,28 C12.65625,29.0848217 13.5738121,30 14.6614583,30 C15.7491051,30 16.6666667,29.0848217 16.6666667,28 C16.6666667,26.9151789 15.7491051,26 14.6614583,26 Z M7.5,10 C10.1922609,15.0848217 14.9479167,15.8861606 20.7352705,16 C24.1145833,16.058036 31.6206871,15.7723217 31.6206871,17.6004463 C31.6206871,18.9709823 26.40625,23.4285714 26.40625,24.2857143 C26.40625,24.2857143 30.0720218,21.2008931 31.9630942,19.4866074 C33.9123538,17.7723217 35,16.7991074 35,15.7723217 C35,13.7142857 27.0373538,14.058036 20.5629474,14.058036 C14.0885417,14.058036 10.5369058,12.8571429 7.5,10 Z" id="ic_opencart" fill="#4EA7FF"></path>
                                </g>
                            </g>
                        </g>
                    </g>
                </g>
            </g>
        </g>
    </g>
</svg>
