<?xml version="1.0" encoding="UTF-8"?>
<svg version="1.1" xmlns="http://www.w3.org/2000/svg" xmlns:xlink="http://www.w3.org/1999/xlink" width="45px" height="23px" viewBox="0 0 45 23">
    <!-- Generator: sketchtool 63.1 (101010) - https://sketch.com -->
    <title>55D97C3E-C358-48E4-A9F4-9D9C9646E773</title>
    <desc>Created with sketchtool.</desc>
    <g id="8.-Services-Web" stroke="none" stroke-width="1" fill="none" fill-rule="evenodd">
        <g id="1920_Services_Web" transform="translate(-177.000000, -4782.000000)" fill="#000000" fill-rule="nonzero">
            <g id="7" transform="translate(150.000000, 4001.000000)">
                <g id="left-block" transform="translate(0.000000, 258.000000)">
                    <g id="back-end" transform="translate(0.000000, 439.000000)">
                        <g id="1" transform="translate(0.000000, 46.000000)">
                            <g id="logo_php" transform="translate(27.000000, 30.000000)">
                                <g transform="translate(0.000000, 8.000000)" id="Shape">
                                    <path d="M3.55265625,4.74515625 L10.2107813,4.74515625 C12.165,4.7615625 13.5810938,5.325 14.4590625,6.43453125 C15.3370313,7.5440625 15.6267188,9.05953125 15.3285938,10.9809375 C15.2128125,11.8589063 14.9559375,12.72 14.5584375,13.5646875 C14.1773438,14.409375 13.6476563,15.1710938 12.9684375,15.8503125 C12.1401563,16.7114063 11.2542188,17.2579688 10.3101563,17.49 C9.36609375,17.7220312 8.38875,17.8378125 7.37859375,17.8378125 L4.39734375,17.8378125 L3.45328125,22.558125 L0,22.558125 L3.55265625,4.74515625 L3.55265625,4.74515625 M6.459375,7.57734375 L4.96875,15.0304688 C5.068125,15.046875 5.1675,15.0553125 5.266875,15.0553125 C5.38265625,15.0553125 5.49890625,15.0553125 5.6146875,15.0553125 C7.2046875,15.0717188 8.52984375,14.9146875 9.5896875,14.5832813 C10.6495313,14.2354688 11.3620313,13.0265625 11.72625,10.9560937 C12.024375,9.21703125 11.72625,8.21484375 10.831875,7.95 C9.95390625,7.68515625 8.8528125,7.5609375 7.52765625,7.57734375 C7.32890625,7.59375 7.13859375,7.6021875 6.95625,7.6021875 C6.79078125,7.6021875 6.616875,7.6021875 6.43453125,7.6021875 L6.459375,7.57734375"></path>
                                    <path d="M19.2623437,0 L22.6907813,0 L21.721875,4.74515625 L24.8025,4.74515625 C26.491875,4.7784375 27.7504688,5.12625 28.57875,5.78859375 C29.4234375,6.4509375 29.671875,7.71 29.3240625,9.56484375 L27.6595313,17.8378125 L24.1814063,17.8378125 L25.7714063,9.9375 C25.936875,9.10921875 25.8871875,8.52140625 25.6223437,8.17359375 C25.3575,7.82578125 24.7860937,7.651875 23.908125,7.651875 L21.1504687,7.62703125 L19.1132812,17.8378125 L15.6848438,17.8378125 L19.2623437,0 L19.2623437,0"></path>
                                    <path d="M33.005625,4.74515625 L39.66375,4.74515625 C41.6179687,4.7615625 43.0340625,5.325 43.9120312,6.43453125 C44.79,7.5440625 45.0796875,9.05953125 44.7815625,10.9809375 C44.6657812,11.8589063 44.4089063,12.72 44.0114063,13.5646875 C43.6303125,14.409375 43.100625,15.1710938 42.4214063,15.8503125 C41.593125,16.7114063 40.7071875,17.2579688 39.763125,17.49 C38.8190625,17.7220312 37.8417187,17.8378125 36.8315625,17.8378125 L33.8503125,17.8378125 L32.90625,22.558125 L29.4529688,22.558125 L33.005625,4.74515625 L33.005625,4.74515625 M35.9123437,7.57734375 L34.4217187,15.0304688 C34.5210937,15.046875 34.6204687,15.0553125 34.7198437,15.0553125 C34.835625,15.0553125 34.951875,15.0553125 35.0676562,15.0553125 C36.6576562,15.0717188 37.9828125,14.9146875 39.0426562,14.5832813 C40.1025,14.2354688 40.815,13.0265625 41.1792187,10.9560937 C41.4773437,9.21703125 41.1792187,8.21484375 40.2848437,7.95 C39.406875,7.68515625 38.3057812,7.5609375 36.980625,7.57734375 C36.781875,7.59375 36.5915625,7.6021875 36.4092187,7.6021875 C36.24375,7.6021875 36.0698437,7.6021875 35.8875,7.6021875 L35.9123437,7.57734375"></path>
                                </g>
                            </g>
                        </g>
                    </g>
                </g>
            </g>
        </g>
    </g>
</svg>
