<?xml version="1.0" encoding="UTF-8"?>
<svg version="1.1" xmlns="http://www.w3.org/2000/svg" xmlns:xlink="http://www.w3.org/1999/xlink" width="39px" height="40px" viewBox="0 0 39 40">
    <!-- Generator: sketchtool 63.1 (101010) - https://sketch.com -->
    <title>C81D8BCB-8A58-44DF-BA49-FC797EF30AC3</title>
    <desc>Created with sketchtool.</desc>
    <g id="8.-Services-Web" stroke="none" stroke-width="1" fill="none" fill-rule="evenodd">
        <g id="1920_Services_Web" transform="translate(-304.000000, -5471.000000)" fill-rule="nonzero">
            <g id="7" transform="translate(150.000000, 4001.000000)">
                <g id="left-block" transform="translate(0.000000, 258.000000)">
                    <g id="database" transform="translate(0.000000, 1136.000000)">
                        <g id="2" transform="translate(124.000000, 46.000000)">
                            <g id="logo_postgresql" transform="translate(30.000000, 30.000000)">
                                <g id="Shape">
                                    <path d="M38.6375758,23.9524242 C38.405,23.2480303 37.7957576,22.7574242 37.0078788,22.639697 C36.6363636,22.5842424 36.2109091,22.6078788 35.7074242,22.7116667 C34.8298485,22.8927273 34.1787879,22.9616667 33.7036364,22.975 C35.4971212,19.9469697 36.9554545,16.4939394 37.795,13.2434848 C39.1525758,7.98757576 38.4271212,5.59318182 37.5793939,4.51015152 C35.3359091,1.64348485 32.0627273,0.103484848 28.1139394,0.0563636364 C26.0074242,0.0306060606 24.1581818,0.446515152 23.1934848,0.745606061 C22.295303,0.587121212 21.3295455,0.498636364 20.3162121,0.482272727 C18.4166667,0.451969697 16.7383333,0.866060606 15.3042424,1.71712121 C14.510303,1.44863636 13.2360606,1.07015152 11.7645455,0.828636364 C8.30363636,0.260454545 5.51424242,0.703181818 3.47393939,2.14454545 C1.00333333,3.88969697 -0.141969697,6.92181818 0.0698484848,11.1566667 C0.137121212,12.5012121 0.889242424,16.5921212 2.07348485,20.4718182 C2.75409091,22.7018182 3.47984848,24.5536364 4.23060606,25.9763636 C5.29530303,27.9937879 6.43454545,29.1818182 7.71348485,29.6084848 C8.43030303,29.8472727 9.73272727,30.0145455 11.1025758,28.8736364 C11.2762121,29.0839394 11.5078788,29.2928788 11.815303,29.4869697 C12.2057576,29.7331818 12.6831818,29.9343939 13.16,30.0536364 C14.8783333,30.4831818 16.4878788,30.3757576 17.8610606,29.7736364 C17.8695455,30.0178788 17.8760606,30.2512121 17.8815152,30.4527273 C17.8906061,30.7795455 17.899697,31.1 17.9116667,31.399697 C17.9930303,33.4260606 18.1309091,35.0016667 18.5393939,36.1040909 C18.5618182,36.164697 18.5919697,36.2571212 18.6237879,36.3551515 C18.8275758,36.9790909 19.1683333,38.0236364 20.035303,38.8416667 C20.9330303,39.6890909 22.0189394,39.9489394 23.0134848,39.9489394 C23.5122727,39.9489394 23.9881818,39.8834848 24.4056061,39.7940909 C25.8934848,39.4751515 27.5833333,38.9893939 28.8057576,37.2487879 C29.9615152,35.6033333 30.5233333,33.125 30.625,29.22 C30.6381818,29.1095455 30.650303,29.0040909 30.6619697,28.9036364 L30.6862121,28.6972727 L30.9584848,28.7212121 L31.0286364,28.7259091 C32.5440909,28.795 34.3971212,28.4736364 35.5351515,27.945 C36.4343939,27.5277273 39.3160606,26.0063636 38.6375758,23.9524242" fill="#000000"></path>
                                    <path d="M36.0463636,24.3518182 C31.540303,25.2813636 31.2304545,23.7557576 31.2304545,23.7557576 C35.9880303,16.6962121 37.9769697,7.73515152 36.2607576,5.5419697 C31.5783333,-0.440606061 23.4730303,2.38878788 23.3377273,2.46212121 L23.2942424,2.47 C22.4039394,2.28515152 21.4077273,2.17515152 20.2878788,2.15681818 C18.2490909,2.12348485 16.7024242,2.69136364 15.5287879,3.58136364 C15.5287879,3.58136364 1.06969697,-2.37530303 1.74227273,11.0728788 C1.88530303,13.9337879 5.84287879,32.720303 10.5631818,27.0459091 C12.2884848,24.9709091 13.9556061,23.2165152 13.9556061,23.2165152 C14.7834848,23.7665152 15.774697,24.0471212 16.8137879,23.9463636 L16.8945455,23.8778788 C16.8693939,24.1354545 16.8809091,24.3874242 16.9268182,24.6857576 C15.7107576,26.0443939 16.0681818,26.2828788 13.6372727,26.7833333 C11.1774242,27.290303 12.6224242,28.1927273 13.5659091,28.4287879 C14.709697,28.714697 17.3557576,29.1198485 19.1436364,26.6169697 L19.0724242,26.9025758 C19.5487879,27.2842424 19.8833333,29.3848485 19.8272727,31.2892424 C19.7712121,33.1934848 19.7337879,34.5009091 20.1090909,35.5221212 C20.484697,36.5433333 20.8587879,38.8410606 24.0545455,38.1563636 C26.724697,37.5840909 28.1084848,36.1012121 28.3010606,33.6275758 C28.4375758,31.8690909 28.7468182,32.1290909 28.7662121,30.5568182 L29.0142424,29.8125758 C29.3001515,27.4287879 29.059697,26.659697 30.704697,27.0174242 L31.104697,27.0525758 C32.315303,27.1075758 33.9001515,26.8577273 34.830303,26.4254545 C36.8330303,25.4960606 38.0209091,23.9440909 36.0460606,24.3518182 L36.0463636,24.3518182" fill="#336791"></path>
                                    <path d="M16.3751515,12.3522727 C15.9690909,12.2957576 15.6013636,12.3480303 15.415303,12.4889394 C15.3107576,12.5681818 15.2783333,12.66 15.2695455,12.7231818 C15.2462121,12.8906061 15.3634848,13.0757576 15.4356061,13.1712121 C15.6395455,13.4415152 15.9374242,13.6272727 16.2322727,13.6681818 C16.275,13.6742424 16.3175758,13.6769697 16.3598485,13.6769697 C16.8515152,13.6769697 17.2986364,13.2940909 17.3380303,13.0115152 C17.3872727,12.6575758 16.8734848,12.4216667 16.3751515,12.3524242 M29.8272727,12.3634848 C29.7884848,12.0860606 29.2948485,12.0069697 28.8263636,12.0721212 C28.3584848,12.1372727 27.9048485,12.3484848 27.9427273,12.6265152 C27.9730303,12.8427273 28.3634848,13.2118182 28.8256061,13.2118182 C28.864697,13.2118182 28.9040909,13.2092424 28.9437879,13.2036364 C29.2522727,13.1609091 29.4786364,12.965 29.5862121,12.8521212 C29.7498485,12.68 29.844697,12.4881818 29.8272727,12.3634848" fill="#FFFFFF"></path>
                                    <path d="M37.5457576,24.2462121 C37.3739394,23.7266667 36.8209091,23.5595455 35.9021212,23.7492424 C33.1740909,24.3122727 32.1971212,23.9222727 31.8763636,23.6860606 C33.9968182,20.4557576 35.7412121,16.5509091 36.6822727,12.9077273 C37.1280303,11.1819697 37.3742424,9.57924242 37.3943939,8.27287879 C37.4166667,6.83909091 37.1724242,5.78545455 36.6687879,5.14181818 C34.6381818,2.54712121 31.6578788,1.15530303 28.050303,1.11712121 C25.5701515,1.08924242 23.474697,1.72393939 23.0684848,1.90242424 C22.2130303,1.68969697 21.2804545,1.55909091 20.2651515,1.54242424 C18.4033333,1.51227273 16.7939394,1.9580303 15.4615152,2.86666667 C14.8827273,2.65121212 13.3869697,2.13772727 11.5577273,1.8430303 C8.39530303,1.33393939 5.88227273,1.71969697 4.08893939,2.99015152 C1.94909091,4.50621212 0.961212121,7.21621212 1.15257576,11.044697 C1.2169697,12.3327273 1.95090909,16.2951515 3.10909091,20.0898485 C4.63363636,25.0843939 6.29090909,27.9118182 8.03454545,28.4934848 C8.23863636,28.5615152 8.47393939,28.6090909 8.73348485,28.6090909 C9.36954545,28.6090909 10.1493939,28.3224242 10.9607576,27.3469697 C11.9503884,26.1597807 12.9740979,25.0014191 14.0306061,23.8733333 C14.7160606,24.2412121 15.4690909,24.4466667 16.2392424,24.4672727 C16.2407576,24.4874242 16.2427273,24.5075758 16.2445455,24.5275758 C16.1119736,24.6856639 15.982156,24.8460416 15.8551515,25.0086364 C15.3215152,25.6860606 15.2104545,25.8271212 13.4927273,26.1807576 C13.0040909,26.2816667 11.7063636,26.5490909 11.6872727,27.4587879 C11.6666667,28.4527273 13.2213636,28.8701515 13.3984848,28.9143939 C14.0157576,29.0689394 14.6104545,29.1451515 15.1775758,29.1451515 C16.5568182,29.1451515 17.7706061,28.6918182 18.7406061,27.814697 C18.7107576,31.3580303 18.8584848,34.8495455 19.2839394,35.9133333 C19.6324242,36.7842424 20.4836364,38.9124242 23.1724242,38.9124242 C23.5669697,38.9124242 24.0012121,38.8665152 24.4789394,38.7640909 C27.2851515,38.1625758 28.5037879,36.9222727 28.9751515,34.1878788 C29.2274242,32.7265152 29.660303,29.2369697 29.8639394,27.3651515 C30.2936364,27.4992424 30.8468182,27.5606061 31.4448485,27.5604545 C32.6921212,27.5604545 34.1313636,27.2954545 35.0339394,26.8765152 C36.0478788,26.4056061 37.8775758,25.2501515 37.5457576,24.2462121 L37.5457576,24.2462121 Z M30.8630303,11.5977273 C30.8537879,12.150303 30.7777273,12.6519697 30.6971212,13.1756061 C30.610303,13.7387879 30.5206061,14.3210606 30.4980303,15.0278788 C30.4757576,15.7157576 30.5616667,16.4309091 30.644697,17.1225758 C30.8125758,18.5195455 30.9848485,19.9577273 30.3180303,21.3768182 C30.2072635,21.1805512 30.1085947,20.9776984 30.0225758,20.7693939 C29.939697,20.5684848 29.759697,20.2457576 29.5104545,19.7990909 C28.5409091,18.060303 26.2704545,13.9884848 27.4327273,12.3269697 C27.7789394,11.8324242 28.6575758,11.3239394 30.8630303,11.5977273 L30.8630303,11.5977273 Z M28.189697,2.23606061 C31.4221212,2.30742424 33.9790909,3.51666667 35.7893939,5.83 C37.1778788,7.60439394 35.6489394,15.6781818 31.2227273,22.6434848 C31.1782147,22.5868848 31.1334669,22.5304701 31.0884848,22.4742424 L31.0324242,22.4042424 C32.1762121,20.515303 31.9525758,18.6463636 31.7534848,16.9893939 C31.6716667,16.3093939 31.5943939,15.6671212 31.6140909,15.0637879 C31.6343939,14.4243939 31.7189394,13.8759091 31.8007576,13.3456061 C31.9012121,12.6921212 32.0034848,12.0159091 31.975303,11.2187879 C31.9963636,11.1351515 32.0048485,11.0363636 31.9937879,10.9190909 C31.9218182,10.154697 31.0490909,7.8669697 29.270303,5.79636364 C28.2972727,4.66378788 26.8783333,3.39636364 24.9409091,2.54151515 C25.7742424,2.36878788 26.9137879,2.20772727 28.189697,2.23606061 Z M10.1021212,26.6330303 C9.20818182,27.7078788 8.59090909,27.5018182 8.38787879,27.4342424 C7.06515152,26.9930303 5.53030303,24.1972727 4.17712121,19.7639394 C3.00621212,15.9278788 2.3219697,12.0704545 2.26772727,10.9887879 C2.09681818,7.56787879 2.92606061,5.18378788 4.73257576,3.90257576 C7.67257576,1.81772727 12.5062121,3.06560606 14.4484848,3.69848485 C14.4206061,3.72606061 14.3915152,3.75181818 14.3639394,3.77984848 C11.1766667,6.99863636 11.2522727,12.4980303 11.2601515,12.8342424 C11.2598485,12.9639394 11.2707576,13.1475758 11.2856061,13.4001515 C11.3404545,14.3251515 11.4425758,16.0466667 11.1698485,17.9962121 C10.9165152,19.8078788 11.475,21.5810606 12.7018182,22.8612121 C12.8277245,22.9923393 12.9600589,23.1171391 13.0983333,23.2351515 C12.5522727,23.82 11.3654545,25.1133333 10.1021212,26.6330303 Z M13.5080303,22.0886364 C12.5192424,21.0568182 12.0701515,19.6216667 12.2757576,18.1507576 C12.5636364,16.0913636 12.4574242,14.2977273 12.400303,13.3340909 C12.3922727,13.1992424 12.3851515,13.0810606 12.3810606,12.9878788 C12.8466667,12.575 15.0043939,11.4189394 16.5431818,11.7715152 C17.245303,11.9322727 17.6731818,12.4104545 17.8510606,13.2328788 C18.7716667,17.4909091 17.9728788,19.2656061 17.3310606,20.6918182 C17.1987879,20.9856061 17.0737879,21.2633333 16.9671212,21.5506061 L16.8843939,21.7727273 C16.675,22.3342424 16.4801515,22.8563636 16.3593939,23.3521212 C15.3081818,23.3490909 14.2856061,22.9 13.5080303,22.0884848 L13.5080303,22.0886364 Z M13.6693939,27.8310606 C13.3624242,27.7543939 13.0863636,27.6212121 12.9243939,27.5107576 C13.059697,27.4471212 13.3004545,27.3604545 13.7180303,27.2743939 C15.7387879,26.8584848 16.0509091,26.5648485 16.7324242,25.6995455 C16.8886364,25.5010606 17.0657576,25.2762121 17.3110606,25.0022727 L17.3113636,25.0019697 C17.6766667,24.5928788 17.8437879,24.6622727 18.1468182,24.7880303 C18.3924242,24.8895455 18.6316667,25.1974242 18.7286364,25.5362121 C18.7745455,25.6962121 18.8260606,25.9998485 18.6574242,26.2362121 C17.2337879,28.2295455 15.1592424,28.2039394 13.6693939,27.8310606 L13.6693939,27.8310606 Z M24.245,37.6722727 C21.7728788,38.2019697 20.8975758,36.9406061 20.3207576,35.4986364 C19.9484848,34.5677273 19.7654545,30.3698485 19.895303,25.7339394 C19.8969697,25.6722727 19.8881818,25.6127273 19.8712121,25.5566667 C19.8560324,25.4459652 19.832943,25.3364932 19.8021212,25.2290909 C19.6090909,24.5545455 19.1386364,23.990303 18.5742424,23.7563636 C18.35,23.6634848 17.9384848,23.4930303 17.4439394,23.6195455 C17.5493939,23.185 17.7322727,22.6942424 17.9306061,22.1628788 L18.0137879,21.9393939 C18.1074242,21.6874242 18.225,21.4263636 18.3492424,21.15 C19.0209091,19.6578788 19.9407576,17.6140909 18.9424242,12.9969697 C18.5684848,11.2675758 17.319697,10.4230303 15.4266667,10.6192424 C14.2918182,10.7366667 13.2534848,11.1945455 12.7356061,11.4571212 C12.6242424,11.5134848 12.5224242,11.5680303 12.4272727,11.6210606 C12.5718182,9.87863636 13.1178788,6.62227273 15.1606061,4.5619697 C16.4468182,3.265 18.159697,2.62439394 20.2466667,2.65893939 C24.3587879,2.72621212 26.9957576,4.83651515 28.4839394,6.59515152 C29.7663636,8.11045455 30.4607576,9.6369697 30.7378788,10.460303 C28.6537879,10.2483333 27.2363636,10.659697 26.5178788,11.6869697 C24.954697,13.9215152 27.3730303,18.2584848 28.535303,20.3428788 C28.7484848,20.7248485 28.9324242,21.055 28.990303,21.195303 C29.3687879,22.1125758 29.8587879,22.725 30.2165152,23.1719697 C30.3262121,23.3089394 30.4325758,23.4418182 30.5134848,23.5578788 C29.8822727,23.7398485 28.7484848,24.160303 28.8518182,26.2619697 C28.7684848,27.3165152 28.1759091,32.2537879 27.8748485,33.9981818 C27.4774242,36.3027273 26.6293939,37.1610606 24.245,37.6724242 L24.245,37.6722727 Z M34.5637879,25.8637879 C33.9183333,26.1633333 32.8381818,26.3880303 31.8121212,26.4363636 C30.6787879,26.4893939 30.1018182,26.3093939 29.9660606,26.1986364 C29.9024242,24.8889394 30.3898485,24.7521212 30.9057576,24.6072727 C30.9868182,24.5845455 31.0659091,24.5622727 31.1422727,24.5356061 C31.189697,24.5742424 31.2416667,24.6125758 31.2986364,24.6501515 C32.2095455,25.2513636 33.8342424,25.3162121 36.1280303,24.8427273 L36.1531818,24.8377273 C35.8437879,25.1269697 35.3143939,25.5151515 34.5637879,25.8637879 Z" fill="#FFFFFF"></path>
                                </g>
                            </g>
                        </g>
                    </g>
                </g>
            </g>
        </g>
    </g>
</svg>
