<?xml version="1.0" encoding="UTF-8"?>
<svg version="1.1" xmlns="http://www.w3.org/2000/svg" xmlns:xlink="http://www.w3.org/1999/xlink" width="40px" height="35px" viewBox="0 0 40 35">
    <!-- Generator: sketchtool 63.1 (101010) - https://sketch.com -->
    <title>3F05701F-6811-459C-A1C1-29BA0920847B</title>
    <desc>Created with sketchtool.</desc>
    <g id="8.-Services-Web" stroke="none" stroke-width="1" fill="none" fill-rule="evenodd">
        <g id="1920_Services_Web" transform="translate(-304.000000, -5598.000000)" fill-rule="nonzero">
            <g id="7" transform="translate(150.000000, 4001.000000)">
                <g id="left-block" transform="translate(0.000000, 258.000000)">
                    <g id="database" transform="translate(0.000000, 1136.000000)">
                        <g id="5" transform="translate(124.000000, 170.000000)">
                            <g id="logo_redis" transform="translate(30.000000, 30.000000)">
                                <g transform="translate(0.000000, 3.000000)" id="Shape">
                                    <path d="M38.4328125,26.3973437 C36.298125,27.51 25.24,32.0567188 22.8857813,33.2840625 C20.5315625,34.5115625 19.22375,34.4996875 17.3639063,33.610625 C15.5042188,32.7215625 3.73640625,27.968125 1.6165625,26.9548438 C0.5571875,26.4485937 0,26.0210937 0,25.6173437 L0,21.5742187 C0,21.5742187 15.3203125,18.2390625 17.7935938,17.3517187 C20.2667188,16.464375 21.1248438,16.4323437 23.2295313,17.2032812 C25.3345313,17.9745312 37.9198438,20.2451562 40,21.0070312 L39.9990625,24.9929687 C39.999375,25.3926562 39.519375,25.8310937 38.4328125,26.3973437" fill="#912626"></path>
                                    <path d="M38.4320313,22.378125 C36.2975,23.4903125 25.2396875,28.0371875 22.8854688,29.264375 C20.5314063,30.4920313 19.2235937,30.48 17.3639063,29.5909375 C15.5040625,28.7025 3.73671875,23.9482813 1.61703125,22.935625 C-0.50265625,21.9223438 -0.54703125,21.225 1.53515625,20.4096875 C3.61734375,19.5940625 15.3201563,15.0026563 17.79375,14.1153125 C20.266875,13.2282813 21.1248438,13.1959375 23.2295313,13.9671875 C25.334375,14.738125 36.32625,19.1132813 38.4060938,19.875 C40.4867188,20.6376563 40.5665625,21.265625 38.4320313,22.378125" fill="#C6302B"></path>
                                    <path d="M38.4328125,19.8553125 C36.298125,20.968125 25.24,25.5146875 22.8857813,26.7425 C20.5315625,27.9695312 19.22375,27.9576562 17.3639062,27.0685937 C15.5040625,26.18 3.73640625,21.4260937 1.6165625,20.4128125 C0.5571875,19.9065625 0,19.4796875 0,19.0757812 L0,15.0321875 C0,15.0321875 15.3203125,11.6971875 17.7935937,10.8098438 C20.2667187,9.9225 21.1248438,9.8903125 23.2295313,10.6614062 C25.3346875,11.4325 37.92,13.7026563 40,14.4646875 L39.9990625,18.4510937 C39.999375,18.850625 39.519375,19.2890625 38.4328125,19.8553125" fill="#912626"></path>
                                    <path d="M38.4320313,15.8360938 C36.2975,16.9485938 25.2396875,21.4951563 22.8854688,22.7228125 C20.5314062,23.95 19.2235937,23.9379688 17.3639062,23.0489063 C15.5040625,22.1604688 3.73671875,17.4064063 1.61703125,16.3935938 C-0.50265625,15.380625 -0.54703125,14.683125 1.53515625,13.8675 C3.61734375,13.0523438 15.3203125,8.460625 17.79375,7.5734375 C20.266875,6.68625 21.1248437,6.6540625 23.2295313,7.42515625 C25.334375,8.19609375 36.32625,12.5709375 38.4060937,13.3329688 C40.4867187,14.0954688 40.5665625,14.7235938 38.4320312,15.8360938" fill="#C6302B"></path>
                                    <path d="M38.4328125,13.0707813 C36.298125,14.1832813 25.24,18.7301563 22.8857813,19.9579688 C20.5315625,21.1851563 19.22375,21.173125 17.3639062,20.2840625 C15.5040625,19.3954688 3.73640625,14.6414063 1.6165625,13.6285938 C0.5571875,13.121875 0,12.6948438 0,12.2914063 L0,8.24765625 C0,8.24765625 15.3203125,4.9128125 17.7935937,4.025625 C20.2667187,3.138125 21.1248438,3.10625 23.2295313,3.8771875 C25.3346875,4.64828125 37.92,6.9184375 40,7.68046875 L39.9990625,11.6667188 C39.999375,12.0659375 39.519375,12.504375 38.4328125,13.0707813" fill="#912626"></path>
                                    <path d="M38.4320313,9.0515625 C36.2975,10.1640625 25.2396875,14.7109375 22.8854687,15.938125 C20.5314062,17.1653125 19.2235937,17.1532812 17.3639062,16.2646875 C15.5042188,15.375625 3.73671875,10.621875 1.6171875,9.60890625 C-0.50265625,8.59609375 -0.546875,7.8984375 1.53515625,7.08296875 C3.61734375,6.26765625 15.3203125,1.6765625 17.79375,0.7890625 C20.266875,-0.09828125 21.1248437,-0.13015625 23.2295312,0.6409375 C25.334375,1.41203125 36.32625,5.786875 38.4060937,6.54890625 C40.4867187,7.31078125 40.5665625,7.9390625 38.4320312,9.0515625" fill="#C6302B"></path>
                                    <path d="M24.8879688,5.11828125 L21.4489063,5.4753125 L20.6790625,7.3278125 L19.435625,5.260625 L15.4645313,4.90375 L18.4276563,3.83515625 L17.5385938,2.19484375 L20.3128125,3.27984375 L22.928125,2.42359375 L22.22125,4.1196875 L24.8879688,5.11828125 M20.47375,14.1054688 L14.0554687,11.4434375 L23.2523437,10.0317187 L20.47375,14.1054688 M11.5753125,6.14796875 C14.2901562,6.14796875 16.4909375,7.00109375 16.4909375,8.05328125 C16.4909375,9.10578125 14.2901562,9.95875 11.5753125,9.95875 C8.86046875,9.95875 6.6596875,9.105625 6.6596875,8.05328125 C6.6596875,7.00109375 8.86046875,6.14796875 11.5753125,6.14796875" fill="#FFFFFF"></path>
                                    <polyline fill="#621B1C" points="28.9523437 5.6246875 34.3954687 7.775625 28.9570312 9.92453125 28.9523437 5.62453125"></polyline>
                                    <polyline fill="#9A2928" points="22.9304687 8.00671875 28.9523438 5.6246875 28.9570312 9.92453125 28.3665625 10.1554688 22.9304687 8.00671875"></polyline>
                                </g>
                            </g>
                        </g>
                    </g>
                </g>
            </g>
        </g>
    </g>
</svg>
