<?xml version="1.0" encoding="UTF-8"?>
<svg version="1.1" xmlns="http://www.w3.org/2000/svg" xmlns:xlink="http://www.w3.org/1999/xlink" width="40px" height="30px" viewBox="0 0 40 30">
    <!-- Generator: sketchtool 63.1 (101010) - https://sketch.com -->
    <title>8DF67D15-89D4-4D6F-9D6F-D635580A3A2A</title>
    <desc>Created with sketchtool.</desc>
    <g id="8.-Services-Web" stroke="none" stroke-width="1" fill="none" fill-rule="evenodd">
        <g id="1920_Services_Web" transform="translate(-180.000000, -4588.000000)" fill="#CF649A" fill-rule="nonzero">
            <g id="7" transform="translate(150.000000, 4001.000000)">
                <g id="left-block" transform="translate(0.000000, 258.000000)">
                    <g id="front-end">
                        <g id="11" transform="translate(0.000000, 294.000000)">
                            <g id="logo_saas" transform="translate(30.000000, 30.000000)">
                                <g transform="translate(0.000000, 5.000000)">
                                    <path d="M34.4327485,17.2007797 C33.037037,17.208655 31.82846,17.5438596 30.8148148,18.042963 C30.4405458,17.3022222 30.0662768,16.6549708 30.0039766,16.1716179 C29.9338012,15.6102144 29.8480312,15.2670565 29.9338012,14.5965692 C30.0194932,13.9259259 30.4093567,12.9746589 30.4093567,12.8966862 C30.4014815,12.8265107 30.3235088,12.4834308 29.5204678,12.4756335 C28.7174269,12.4678363 28.0233918,12.6315789 27.9454191,12.8421053 C27.8674464,13.0526316 27.711501,13.5360624 27.6101365,14.0350877 C27.4697856,14.7680312 26.0038986,17.3645224 25.1695906,18.7290448 C24.8966862,18.1988304 24.662768,17.7309942 24.6159064,17.3566472 C24.545809,16.7953216 24.459961,16.4521637 24.545809,15.7816764 C24.6315789,15.1110331 25.0214425,14.1598441 25.0214425,14.0818713 C25.0136452,14.0116959 24.9356725,13.668616 24.1326316,13.6608187 C23.3294347,13.6530214 22.6355556,13.8167641 22.5575828,14.0272904 C22.4796101,14.2378168 22.3938402,14.7368421 22.2223002,15.2202729 C22.0584795,15.7037037 20.1091618,20.0389864 19.6023392,21.1695906 C19.3450292,21.7465887 19.1189864,22.2066277 18.9551657,22.5185185 C18.791423,22.8304094 18.9473684,22.5419103 18.9317739,22.5730994 C18.791423,22.8382066 18.7134503,22.9863548 18.7134503,22.9863548 L18.7134503,22.99423 C18.6042885,23.1891618 18.4873294,23.3762183 18.4326706,23.3762183 C18.3936842,23.3762183 18.3157115,22.8538012 18.4482651,22.1365302 C18.7367641,20.6315789 19.4385185,18.2846784 19.4307992,18.1989084 C19.4307992,18.159922 19.5632749,17.7465887 18.9784795,17.5361404 C18.4092788,17.325614 18.2066277,17.6764912 18.1597661,17.6764912 C18.1129825,17.6764912 18.0739961,17.8012476 18.0739961,17.8012476 C18.0739961,17.8012476 18.705575,15.1580507 16.8654191,15.1580507 C15.711423,15.1580507 14.1207797,16.4134113 13.3332554,17.5596101 C12.83423,17.8325146 11.7738012,18.4094347 10.6509942,19.0254971 C10.2221442,19.2594152 9.77769981,19.5089279 9.35664717,19.7350487 L9.27095517,19.6413255 C7.04093567,17.2631579 2.91617934,15.5789474 3.0877193,12.3820663 C3.15009747,11.2202729 3.55555556,8.15594542 11.0098246,4.44444444 C17.1150877,1.40350877 22.0039766,2.23781676 22.8538012,4.09356725 C24.0623782,6.74463938 20.2417154,11.6725146 13.8948148,12.3820663 C11.4776608,12.6549708 10.2066277,11.7192982 9.88701754,11.3684211 C9.55173489,11.0019493 9.50495127,10.9863548 9.38019493,11.0565302 C9.17746589,11.165692 9.30222222,11.4931774 9.38019493,11.6881092 C9.56732943,12.1793372 10.3470565,13.0526316 11.6725926,13.4892788 C12.834308,13.871345 15.6725926,14.0818713 19.1033918,12.7563353 C22.9474464,11.2670565 25.9493957,7.13450292 25.0683041,3.68031189 C24.1716179,0.16374269 18.3392593,-0.990253411 12.8265887,0.966861598 C9.54385965,2.13645224 5.98830409,3.96101365 3.43079922,6.35477583 C0.389863548,9.19298246 -0.0935672515,11.6725146 0.109161793,12.7017544 C0.818791423,16.374269 5.8791423,18.7680312 7.90643275,20.5380117 C7.80506823,20.5925146 7.71150097,20.6470955 7.62573099,20.6939571 C6.61208577,21.1929045 2.75243665,23.2124756 1.78557505,25.3488499 C0.693957115,27.7660039 1.95711501,29.5048733 2.79922027,29.7387914 C5.40350877,30.4639376 8.07017544,29.1617934 9.51267057,27.0175439 C10.9472904,24.8732943 10.7758285,22.0896686 10.1130604,20.8187135 L10.0895906,20.7719298 L10.8849123,20.3040936 C11.3996101,20 11.9064327,19.7192982 12.3507992,19.4775049 C12.1013645,20.1558674 11.9219493,20.9589864 11.82846,22.128577 C11.7192982,23.5009747 12.2807018,25.2786745 13.0214425,25.9804288 C13.3489279,26.2844444 13.7387914,26.2923197 13.9805068,26.2923197 C14.8382066,26.2923197 15.2280702,25.5826901 15.6569201,24.7328655 C16.1871345,23.6958285 16.6549708,22.4950487 16.6549708,22.4950487 C16.6549708,22.4950487 16.0701754,25.7465107 17.668616,25.7465107 C18.2534113,25.7465107 18.8382066,24.9901754 19.1033138,24.6003119 L19.1033138,24.6081092 C19.1033138,24.6081092 19.1189084,24.5847173 19.1500975,24.5301365 C19.1828138,24.4817615 19.2140179,24.4323809 19.2436647,24.3820663 L19.2436647,24.3664717 C19.4775828,23.9610136 20,23.0331384 20.7797271,21.497076 C21.7854971,19.5165692 22.7524366,17.037037 22.7524366,17.037037 C22.7524366,17.037037 22.8460039,17.6452242 23.1345029,18.6432749 C23.3059649,19.2359454 23.6802339,19.8830409 23.9687329,20.5146199 C23.7348148,20.8421053 23.5944639,21.0293177 23.5944639,21.0293177 L23.6022612,21.037115 C23.4152047,21.2866277 23.2046004,21.5518129 22.9863548,21.8168421 C22.1910331,22.7681092 21.2397661,23.8520078 21.1150097,24.1638986 C20.9668616,24.5302924 20.9980507,24.8031969 21.2865497,25.0215984 C21.497076,25.1775439 21.871345,25.208655 22.2690058,25.1775439 C22.9863548,25.1306823 23.4853801,24.951423 23.7348928,24.8421832 C24.1247563,24.7018324 24.5692008,24.491306 24.9980507,24.1794152 C25.7777778,23.6024951 26.2534113,22.7837817 26.2066277,21.6921637 C26.1832359,21.0917739 25.9883041,20.4991813 25.7465887,19.9377778 C25.8167641,19.8364133 25.8870175,19.7349708 25.957115,19.6258869 C27.1890838,17.8246394 28.1403509,15.8442105 28.1403509,15.8442105 C28.1403509,15.8442105 28.2339181,16.4523977 28.5224172,17.4504483 C28.6704873,17.957271 28.9668616,18.5109552 29.2319688,19.0567641 C28.0779727,20.0002339 27.3528265,21.0918519 27.1033138,21.8092008 C26.6432749,23.1347368 27.0019493,23.7351267 27.6803119,23.8754776 C27.9843275,23.9378558 28.4210526,23.7975049 28.74846,23.657154 C29.1539181,23.5246004 29.6451462,23.2984016 30.0974659,22.9631969 C30.877193,22.3861988 31.625731,21.5830799 31.5867446,20.4992593 C31.5633528,20.0002339 31.4307992,19.5090058 31.251462,19.0411696 C32.2339181,18.6357115 33.5047953,18.4017934 35.1189084,18.5967251 C38.588694,19.0021832 39.2748538,21.1698246 39.1423782,22.074308 C39.0098246,22.9788694 38.2846784,23.4778168 38.042885,23.6337622 C37.8011696,23.7819103 37.7231969,23.8365692 37.7465887,23.945653 C37.7777778,24.1094737 37.8869396,24.1015984 38.0974659,24.0704873 C38.3859649,24.0236257 39.9220273,23.3297466 39.9844055,21.6612086 C40.0779727,19.5166472 38.042885,17.1774659 34.4327485,17.2007797 L34.4327485,17.2007797 Z M7.67251462,26.2222222 C6.52631579,27.4775828 4.9122807,27.9532164 4.22612086,27.5477583 C3.48538012,27.1189084 3.77380117,25.2709552 5.18518519,23.9376218 C6.04288499,23.1267057 7.15789474,22.3781676 7.89083821,21.9181287 C8.0545809,21.8167641 8.30409357,21.668694 8.60038986,21.4892788 C8.64717349,21.4581676 8.67836257,21.4424951 8.67836257,21.4424951 C8.73294347,21.411306 8.79532164,21.3723197 8.85769981,21.3333333 C9.38011696,23.2358674 8.88109162,24.9044834 7.67251462,26.2222222 L7.67251462,26.2222222 Z M16.0545809,20.5224172 C15.6569201,21.497076 14.8148148,24 14.3079922,23.8596491 C13.8712671,23.7426901 13.6062378,21.8479532 14.2221442,19.9766082 C14.5340351,19.0330604 15.1968031,17.9103314 15.5866667,17.4736062 C16.2183236,16.7718519 16.9044055,16.5379337 17.0760234,16.8264327 C17.2787524,17.2007797 16.3040936,19.91423 16.0545809,20.5224172 Z M22.9707602,23.82846 C22.7992203,23.914308 22.6432749,23.9766082 22.5730994,23.9299025 C22.5185185,23.8987135 22.6431969,23.7817544 22.6431969,23.7817544 C22.6431969,23.7817544 23.508694,22.8538791 23.8517739,22.4250292 C24.0467057,22.1755945 24.2806238,21.8870955 24.5301365,21.5595322 L24.5301365,21.6530994 C24.5302144,22.7758285 23.454191,23.5243665 22.9707602,23.82846 Z M28.3040156,22.6120858 C28.1792593,22.5185185 28.1949318,22.2300195 28.6159064,21.3255361 C28.7797271,20.9668616 29.1539181,20.3664717 29.8010916,19.797271 C29.8790643,20.0311891 29.9259259,20.257232 29.9180507,20.4678363 C29.9103314,21.871345 28.9122807,22.3937622 28.3040156,22.6120858 Z"></path>
                                </g>
                            </g>
                        </g>
                    </g>
                </g>
            </g>
        </g>
    </g>
</svg>
