<?xml version="1.0" encoding="UTF-8"?>
<svg version="1.1" xmlns="http://www.w3.org/2000/svg" xmlns:xlink="http://www.w3.org/1999/xlink" width="40px" height="40px" viewBox="0 0 40 40">
    <!-- Generator: sketchtool 63.1 (101010) - https://sketch.com -->
    <title>6088E895-D102-4E30-94E9-B63BCA87B794</title>
    <desc>Created with sketchtool.</desc>
    <g id="8.-Services-Web" stroke="none" stroke-width="1" fill="none" fill-rule="evenodd">
        <g id="1920_Services_Web" transform="translate(-304.000000, -5089.000000)" fill-rule="nonzero">
            <g id="7" transform="translate(150.000000, 4001.000000)">
                <g id="left-block" transform="translate(0.000000, 258.000000)">
                    <g id="languages" transform="translate(0.000000, 630.000000)">
                        <g id="2">
                            <g id="5" transform="translate(124.000000, 170.000000)">
                                <g id="logo_symfony" transform="translate(30.000000, 30.000000)">
                                    <g>
                                        <circle id="Oval" fill="#1A171B" cx="19.922179" cy="20.0508949" r="19.922179"></circle>
                                        <path d="M28.5923735,7.49011673 C26.5712062,7.56062257 24.8071595,8.67455253 23.4940078,10.2154086 C22.04,11.9049027 21.0726848,13.9087938 20.3757198,15.9542412 C19.1290272,14.9324514 18.1671595,13.6096498 16.1670039,13.0328405 C14.6210117,12.5889494 12.9971984,12.7722957 11.5039689,13.8848249 C10.7965759,14.4132296 10.3092607,15.2119844 10.0775097,15.9628016 C9.47750973,17.9140856 10.7083268,19.6505837 11.267393,20.2740856 L12.4896498,21.5839689 C12.7416342,21.8407782 13.3484825,22.5108171 13.0518288,23.4714397 C12.7312062,24.5157977 11.4720623,25.1920623 10.1805447,24.7936187 C9.60373541,24.6177432 8.77509728,24.1880156 8.96062257,23.5828794 C9.03735409,23.3354086 9.21447471,23.1501946 9.30941634,22.9361868 C9.39657588,22.7523735 9.4381323,22.6144747 9.46459144,22.5335409 C9.70054475,21.7631128 9.37821012,20.7607782 8.55299611,20.5063035 C7.78319066,20.2703502 6.99548638,20.4572763 6.69011673,21.4485603 C6.34381323,22.5746304 6.88264591,24.6183658 9.76918288,25.5083268 C13.1511284,26.547393 16.0119844,24.7059922 16.4177432,22.3042802 C16.6733074,20.8 15.9940856,19.6824903 14.7497276,18.2451362 L13.7358755,17.1238911 C13.1217121,16.5103502 12.9108171,15.4645914 13.5464591,14.660856 C14.0828016,13.9828794 14.8466926,13.6935409 16.0977432,14.0337743 C17.9238911,14.5296498 18.7378988,15.7967315 20.0961868,16.818677 C19.5354086,18.6582101 19.1688716,20.5045914 18.8370428,22.1603113 L18.6348638,23.3947082 C17.6639689,28.4874708 16.9228016,31.2838911 14.9967315,32.8893385 C14.608716,33.1652918 14.0540078,33.5783658 13.2178988,33.6071595 C12.7796109,33.6207004 12.6379767,33.3192218 12.6319066,33.1878599 C12.6214786,32.8801556 12.8807782,32.739144 13.0530739,32.6006226 C13.3105058,32.4602335 13.6997665,32.227393 13.6733074,31.4814008 C13.6452918,30.5998444 12.9150195,29.8354864 11.8594553,29.8705058 C11.0687938,29.8974319 9.86365759,30.6415564 9.90894942,32.0035798 C9.95610895,33.410428 11.267393,34.4647471 13.244358,34.3979767 C14.3011673,34.3617121 16.6610117,33.9315175 18.9867704,31.1668482 C21.6936965,27.9976654 22.4507393,24.3645136 23.0202335,21.7053696 L23.6558755,18.1947082 C24.0090272,18.2370428 24.3866148,18.265214 24.7973541,18.2750195 C28.168716,18.3461479 29.8550973,16.5998444 29.8801556,15.3296498 C29.8968093,14.5609339 29.3757198,13.8045136 28.6462257,13.8216342 C28.1240467,13.8364202 27.4680156,14.1839689 27.3105058,14.9061479 C27.1567315,15.6146304 28.3833463,16.2540078 27.4245914,16.8750195 C26.7435019,17.3157977 25.5224903,17.6264591 23.8029572,17.3740078 L24.115642,15.6459144 C24.7537743,12.3688716 25.540856,8.33789883 28.5266926,8.23984436 C28.7442802,8.22879377 29.5405447,8.24964981 29.5590661,8.77618677 C29.5645136,8.95206226 29.5209339,8.99688716 29.3150195,9.39953307 C29.1053696,9.71346304 29.0263035,9.98070039 29.0361089,10.2877821 C29.0649027,11.1245136 29.7011673,11.6743969 30.621323,11.6412451 C31.8533852,11.6014008 32.2077821,10.4018677 32.1875486,9.78583658 C32.1377432,8.33836576 30.6121401,7.42396887 28.5922179,7.49011673 L28.5923735,7.49011673 Z" id="Shape" fill="#FFFFFF"></path>
                                    </g>
                                </g>
                            </g>
                        </g>
                    </g>
                </g>
            </g>
        </g>
    </g>
</svg>
