<?xml version="1.0" encoding="UTF-8"?>
<svg version="1.1" xmlns="http://www.w3.org/2000/svg" xmlns:xlink="http://www.w3.org/1999/xlink" width="40px" height="40px" viewBox="0 0 40 40">
    <!-- Generator: sketchtool 63.1 (101010) - https://sketch.com -->
    <title>5F352F4C-A1F7-4977-9E39-F77EC5B95D32</title>
    <desc>Created with sketchtool.</desc>
    <g id="8.-Services-Web" stroke="none" stroke-width="1" fill="none" fill-rule="evenodd">
        <g id="1920_Services_Web" transform="translate(-304.000000, -5280.000000)" fill="#00749A" fill-rule="nonzero">
            <g id="7" transform="translate(150.000000, 4001.000000)">
                <g id="left-block" transform="translate(0.000000, 258.000000)">
                    <g id="cms" transform="translate(0.000000, 945.000000)">
                        <g id="2" transform="translate(124.000000, 46.000000)">
                            <g id="logo_wordpress" transform="translate(30.000000, 30.000000)">
                                <g id="Shape">
                                    <path d="M2.83186485,19.9219512 C2.83186485,26.6871545 6.76325203,32.5330081 12.464065,35.3037398 L4.31154472,12.9665041 C3.33424204,15.154991 2.83002078,17.5251633 2.83186485,19.9219512 Z M31.4601626,19.0595122 C31.4601626,16.9473171 30.7014634,15.4845528 30.0507317,14.3460163 C29.1843902,12.9382114 28.3726829,11.7460163 28.3726829,10.3382114 C28.3726829,8.76715447 29.5639024,7.30471545 31.2422764,7.30471545 C31.3180488,7.30471545 31.3899187,7.31414634 31.464065,7.31837398 C28.4230894,4.53268293 24.3720325,2.83186992 19.9226016,2.83186992 C13.9518699,2.83186992 8.69886179,5.89528455 5.64292683,10.5352846 C6.04390244,10.5473171 6.42211382,10.5554472 6.74276423,10.5554472 C8.5304065,10.5554472 11.297561,10.3385366 11.297561,10.3385366 C12.2188618,10.2842276 12.3274797,11.6373984 11.4074797,11.7463415 C11.4074797,11.7463415 10.4813008,11.8552846 9.45105691,11.9092683 L15.6747967,30.4214634 L19.4152846,19.2042276 L16.7521951,11.9089431 C15.8318699,11.8549593 14.96,11.7460163 14.96,11.7460163 C14.0390244,11.6920325 14.1469919,10.2839024 15.0679675,10.3382114 C15.0679675,10.3382114 17.8904065,10.555122 19.5697561,10.555122 C21.3570732,10.555122 24.1245528,10.3382114 24.1245528,10.3382114 C25.0465041,10.2839024 25.1547967,11.6370732 24.2341463,11.7460163 C24.2341463,11.7460163 23.3063415,11.8549593 22.2780488,11.9089431 L28.4543089,30.2809756 L30.1586992,24.5843902 C30.8978862,22.2204878 31.4601626,20.5226016 31.4601626,19.0595122 L31.4601626,19.0595122 Z"></path>
                                    <path d="M20.222439,21.4169106 L15.0946341,36.3170732 C16.6623355,36.7790851 18.2882386,37.0136585 19.9226016,37.0136585 C21.9128455,37.0136585 23.8214634,36.6692683 25.5980488,36.044878 C25.5503926,35.9702798 25.50968,35.8914672 25.4764228,35.8094309 L20.222439,21.4169106 Z M34.9190244,11.7222764 C34.9925203,12.2666667 35.0341463,12.8513821 35.0341463,13.4796748 C35.0341463,15.2139837 34.7102439,17.1635772 33.7346341,19.6013008 L28.5141463,34.6949593 C33.595122,31.7320325 37.0127044,26.2273171 37.0127044,19.9219512 C37.0172408,17.0559275 36.2970335,14.2352833 34.9190244,11.7222764 L34.9190244,11.7222764 Z"></path>
                                    <path d="M19.9226016,0 C8.93756098,0 0,8.93691057 0,19.9219512 C0,30.9082927 8.93723577,39.8452033 19.9226016,39.8452033 C30.9073171,39.8452033 39.8461789,30.9086179 39.8461789,19.9219512 C39.8461789,8.93691057 30.9073171,0 19.9226016,0 Z M19.9226016,38.9317073 C9.44130081,38.9317073 0.913495935,30.4039024 0.913495935,19.9219512 C0.913495935,9.44097561 9.44097561,0.913821138 19.9226016,0.913821138 C30.4035772,0.913821138 38.9307317,9.44097561 38.9307317,19.9219512 C38.9307317,30.4039024 30.403252,38.9317073 19.9226016,38.9317073 Z"></path>
                                </g>
                            </g>
                        </g>
                    </g>
                </g>
            </g>
        </g>
    </g>
</svg>
