<?xml version="1.0" encoding="UTF-8"?>
<svg version="1.1" xmlns="http://www.w3.org/2000/svg" xmlns:xlink="http://www.w3.org/1999/xlink" width="38px" height="40px" viewBox="0 0 38 40">
    <!-- Generator: sketchtool 63.1 (101010) - https://sketch.com -->
    <title>605F8465-7984-4A35-8645-D8B35B4DF14A</title>
    <desc>Created with sketchtool.</desc>
    <defs>
        <linearGradient x1="50%" y1="0%" x2="50%" y2="100%" id="linearGradient-1">
            <stop stop-color="#73B723" offset="0%"></stop>
            <stop stop-color="#D8EE61" offset="100%"></stop>
        </linearGradient>
        <linearGradient x1="68.1985756%" y1="26.251%" x2="30.9880277%" y2="100%" id="linearGradient-2">
            <stop stop-color="#98C9EA" offset="0%"></stop>
            <stop stop-color="#026FB2" offset="68.865%"></stop>
            <stop stop-color="#086EB6" offset="100%"></stop>
        </linearGradient>
        <linearGradient x1="0%" y1="20.2389179%" x2="85.884%" y2="63.5825818%" id="linearGradient-3">
            <stop stop-color="#D73721" offset="0%"></stop>
            <stop stop-color="#F7D768" offset="100%"></stop>
        </linearGradient>
        <linearGradient x1="46.3076316%" y1="30.993%" x2="57.131067%" y2="81.746%" id="linearGradient-4">
            <stop stop-color="#D4C883" offset="0%"></stop>
            <stop stop-color="#A1D1A7" offset="100%"></stop>
        </linearGradient>
    </defs>
    <g id="8.-Services-Web" stroke="none" stroke-width="1" fill="none" fill-rule="evenodd">
        <g id="1920_Services_Web" transform="translate(-180.000000, -5089.000000)" fill-rule="nonzero">
            <g id="7" transform="translate(150.000000, 4001.000000)">
                <g id="left-block" transform="translate(0.000000, 258.000000)">
                    <g id="languages" transform="translate(0.000000, 630.000000)">
                        <g id="2">
                            <g id="4" transform="translate(0.000000, 170.000000)">
                                <g id="logo_yii" transform="translate(30.000000, 30.000000)">
                                    <g id="Shape">
                                        <path d="M32.2425872,0.000581395349 C34.9460756,1.37819767 37.2681686,4.99331395 37.1517442,9.89883721 C36.7984012,15.9431686 32.4159884,21.1523256 27.6478198,25.9517442 C27.380814,20.0986919 26.1081395,16.3686047 24.1209302,11.1232558 C22.2447674,5.83735465 27.7299419,0.169767442 32.2425872,0.000581395349 Z" fill="url(#linearGradient-1)"></path>
                                        <path d="M17.61875,25.7459302 C19.0704942,23.9401163 20.0994186,22.3319767 20.8174419,20.8790698 C25.7360465,23.4507267 24.575436,22.9704942 26.9476744,25.7104651 C26.9556686,25.7957849 26.9632267,25.880814 26.9703488,25.9655523 C27.1671512,29.7646802 24.3957849,38.5475291 13.4829942,39.7511628 C12.7276163,33.849564 15.1834302,28.8155523 17.61875,25.7459302 Z" fill="url(#linearGradient-2)"></path>
                                        <path d="M0.0568313953,3.66962209 C7.83226744,0.592732558 16.200436,3.74462209 21.0315407,10.3116279 C21.4989826,10.9468023 21.9421512,11.606686 22.3601744,12.2857558 C23.1151163,17.1047965 22.5393895,19.7811047 21.0700581,21.1998547 C20.1039244,20.7123547 19.0731105,20.2800872 17.9726744,19.8803779 C15.4145349,18.9510174 13.053343,18.3359012 9.68139535,17.3375 C1.6744186,15.1523256 -0.300145349,8.28662791 0.0568313953,3.66962209 Z" fill="url(#linearGradient-3)"></path>
                                        <path d="M22.062936,11.8139535 C22.1139535,11.8931686 22.1643895,11.9718023 22.2140988,12.0515988 L22.275436,12.15 C22.4001453,12.350436 22.5225291,12.5520349 22.6431686,12.7561047 L22.6635174,12.7901163 L22.6959302,12.8453488 L22.725436,12.8963663 L22.8117733,13.0446221 L22.8177326,13.0553779 L22.9347384,13.2606105 L22.9383721,13.2665698 C23.0229651,13.4159884 23.1063953,13.5659884 23.1885174,13.7171512 L23.1986919,13.7363372 L23.2899709,13.9055233 L23.2924419,13.9098837 L23.3925872,14.0981105 L23.4213663,14.153343 L23.4771802,14.2609012 L23.5454942,14.393314 L23.6116279,14.5218023 C23.6787791,14.6549419 23.7453488,14.7882267 23.8107558,14.9213663 L23.8276163,14.9543605 C23.945497,15.1957528 24.0604763,15.4385513 24.1725291,15.6827035 L24.2578488,15.8693314 L24.2661337,15.887936 L24.3207849,16.009157 L24.3844477,16.1526163 L24.4203488,16.2354651 L24.4780523,16.3680233 L24.5193314,16.4633721 L24.6063953,16.6686047 L24.6123547,16.6829942 L24.7053779,16.9061047 L24.7167151,16.9331395 C24.815843,17.1744186 24.9117733,17.4156977 25.0047965,17.6584302 L25.0138081,17.680814 L25.0905523,17.8843023 L25.0953488,17.8954942 L25.1398256,18.0155523 C25.1890464,18.1487053 25.2376419,18.2820885 25.2856105,18.4156977 L25.3042151,18.4680233 C25.3569767,18.6172965 25.409157,18.7674419 25.459593,18.9167151 L25.4757267,18.9640988 C25.5231105,19.1045058 25.56875,19.2449128 25.6143895,19.3853198 L25.6366279,19.4543605 L25.6420058,19.4704942 L25.7139535,19.6979651 L25.7168605,19.7081395 L25.7835756,19.9252907 L25.8501453,20.1491279 L25.8520349,20.1539244 L25.9072674,20.3428779 L25.9247093,20.4042151 L25.9581395,20.5212209 C25.9959302,20.6561047 26.0331395,20.7905523 26.069186,20.9255814 L26.0962209,21.0263081 L26.1484012,21.225436 L26.1507267,21.2351744 C26.2143895,21.4799419 26.2742733,21.7247093 26.3313953,21.9688953 L26.3367733,21.994186 L26.3427326,22.0199128 C26.4171512,22.3421512 26.4856105,22.6632267 26.5485465,22.9829942 L26.5546512,23.0148256 C26.650946,23.506521 26.7341634,24.0006876 26.8042151,24.4968023 L26.8053779,24.503343 C26.8270349,24.6545058 26.8468023,24.8050872 26.865407,24.955814 L26.8731105,25.0204942 L26.8984012,25.2359012 L26.8984012,25.2364826 L26.9199128,25.4357558 L26.9271802,25.5017442 L26.9427326,25.659593 L26.9488372,25.7231105 L26.9511628,25.7489826 L26.9703488,25.9655523 C25.2526163,23.753343 23.2005814,22.2286337 20.7382267,21.0359012 C22.725436,17.1071221 22.4463663,14.3077035 22.062936,11.8139535" fill="url(#linearGradient-4)"></path>
                                    </g>
                                </g>
                            </g>
                        </g>
                    </g>
                </g>
            </g>
        </g>
    </g>
</svg>
